<?xml version="1.0" encoding="utf-8"?>
<!-- Generator: Adobe Illustrator 27.4.0, SVG Export Plug-In . SVG Version: 6.00 Build 0)  -->
<svg version="1.1" id="레이어_1" xmlns="http://www.w3.org/2000/svg" xmlns:xlink="http://www.w3.org/1999/xlink" x="0px"
	 y="0px" viewBox="0 0 529.99 513.25" style="enable-background:new 0 0 529.99 513.25;" xml:space="preserve">
<style type="text/css">
	.st0{fill:#FFFFFF;stroke:#DCDDDD;stroke-linecap:round;stroke-linejoin:round;stroke-miterlimit:10;stroke-dasharray:3,3;}
	.st1{fill:#FFFFFF;stroke:#3A72C1;stroke-miterlimit:10;}
	.st2{fill:#FFFFFF;stroke:#DCDDDD;stroke-miterlimit:10;}
	.st3{fill:none;stroke:#3A72C1;stroke-width:0.75;stroke-miterlimit:10;}
	.st4{fill:#3A72C1;}
	.st5{fill:none;stroke:#9FA0A0;stroke-linecap:round;stroke-linejoin:round;stroke-miterlimit:10;stroke-dasharray:3,3;}
	.st6{fill:none;stroke:#DCDDDD;stroke-linecap:round;stroke-linejoin:round;stroke-miterlimit:10;stroke-dasharray:3,3;}
	.st7{fill:#DDEBFF;stroke:#76A3D5;stroke-miterlimit:10;}
</style>
<g>
	<path class="st0" d="M435.27,276.35H335.1c-2.76,0-5-2.24-5-5v-49.58c0-2.76,2.24-5,5-5h100.17c2.76,0,5,2.24,5,5v49.58
		C440.27,274.11,438.03,276.35,435.27,276.35z"/>
	<path class="st1" d="M143.95,98.39H94.72c-2.76,0-5-2.24-5-5V61.25c0-2.76,2.24-5,5-5h49.23c2.76,0,5,2.24,5,5v32.14
		C148.95,96.16,146.71,98.39,143.95,98.39z"/>
	<path class="st1" d="M263.34,98.39h-49.23c-2.76,0-5-2.24-5-5V61.25c0-2.76,2.24-5,5-5h49.23c2.76,0,5,2.24,5,5v32.14
		C268.34,96.16,266.1,98.39,263.34,98.39z"/>
	<path class="st1" d="M435.27,91.25H335.1c-2.76,0-5-2.24-5-5V68.4c0-2.76,2.24-5,5-5h100.17c2.76,0,5,2.24,5,5v17.84
		C440.27,89.01,438.03,91.25,435.27,91.25z"/>
	<path class="st1" d="M435.27,205.44H335.1c-2.76,0-5-2.24-5-5V182.6c0-2.76,2.24-5,5-5h100.17c2.76,0,5,2.24,5,5v17.84
		C440.27,203.2,438.03,205.44,435.27,205.44z"/>
	<path class="st1" d="M435.27,315.53H335.1c-2.76,0-5-2.24-5-5v-17.84c0-2.76,2.24-5,5-5h100.17c2.76,0,5,2.24,5,5v17.84
		C440.27,313.29,438.03,315.53,435.27,315.53z"/>
	<path class="st1" d="M263.34,267.63h-49.23c-2.76,0-5-2.24-5-5v-32.14c0-2.76,2.24-5,5-5h49.23c2.76,0,5,2.24,5,5v32.14
		C268.34,265.39,266.1,267.63,263.34,267.63z"/>
	<path class="st2" d="M263.91,486.88H95.28c-2.76,0-5-2.24-5-5V351.15c0-2.76,2.24-5,5-5H263.9c2.76,0,5,2.24,5,5v130.73
		C268.91,484.64,266.67,486.88,263.91,486.88z"/>
	<g>
		<g>
			<path d="M90.07,30.33h1.96l0.81,3.69c0.15,0.72,0.24,1.44,0.37,2.17h0.05c0.15-0.73,0.28-1.46,0.47-2.17l0.89-3.69h1.74
				l0.93,3.69c0.17,0.72,0.31,1.44,0.47,2.17h0.07c0.13-0.73,0.23-1.45,0.37-2.17l0.81-3.69h1.81l-1.84,7.45h-2.3l-0.79-3.25
				c-0.16-0.71-0.28-1.38-0.43-2.17h-0.07c-0.15,0.79-0.25,1.48-0.41,2.17l-0.76,3.25H92L90.07,30.33z"/>
			<path d="M104.42,27.07h1.3l-3.3,13.13h-1.3L104.42,27.07z"/>
			<path d="M109.3,32.9c0-3.25,2.09-5.15,4.58-5.15c1.25,0,2.25,0.6,2.89,1.26l-1.04,1.25c-0.49-0.48-1.06-0.83-1.81-0.83
				c-1.49,0-2.61,1.28-2.61,3.39c0,2.14,1.01,3.43,2.57,3.43c0.84,0,1.5-0.4,2.04-0.97l1.04,1.22c-0.81,0.94-1.86,1.45-3.14,1.45
				C111.33,37.97,109.3,36.19,109.3,32.9z"/>
			<path d="M118.27,27.94h3.23c2.18,0,3.86,0.76,3.86,3.09c0,2.25-1.69,3.26-3.8,3.26h-1.32v3.5h-1.97V27.94z M121.42,32.73
				c1.36,0,2.01-0.57,2.01-1.7c0-1.14-0.72-1.53-2.08-1.53h-1.12v3.23H121.42z"/>
			<path d="M126.83,33.35v-5.42h1.97v5.59c0,2.05,0.71,2.74,1.86,2.74c1.17,0,1.92-0.69,1.92-2.74v-5.59h1.89v5.42
				c0,3.27-1.4,4.62-3.81,4.62C128.27,37.97,126.83,36.63,126.83,33.35z"/>
			<path d="M138.7,34.07c0-2.49,1.72-3.92,3.58-3.92s3.58,1.44,3.58,3.92c0,2.46-1.72,3.9-3.58,3.9
				C140.41,37.97,138.7,36.53,138.7,34.07z M143.86,34.07c0-1.41-0.57-2.33-1.58-2.33s-1.58,0.92-1.58,2.33c0,1.4,0.57,2.3,1.58,2.3
				S143.86,35.47,143.86,34.07z"/>
			<path d="M152.2,29.73c0-1.56,0.72-2.75,2.58-2.75c0.58,0,1.09,0.13,1.42,0.27l-0.36,1.44c-0.27-0.09-0.55-0.16-0.8-0.16
				c-0.58,0-0.9,0.35-0.9,1.17v0.64h1.41v1.54h-1.41v5.91h-1.94v-5.91h-2.69v5.91h-1.96v-5.91h-1v-1.45l1-0.08v-0.52
				c0-1.53,0.79-2.7,2.67-2.7c0.6,0,1.14,0.13,1.5,0.28l-0.36,1.45c-0.27-0.12-0.52-0.19-0.91-0.19c-0.57,0-0.96,0.39-0.96,1.16
				v0.51h2.69v-0.61H152.2z M159.67,37.8c-0.24,0.09-0.56,0.17-1.01,0.17c-1.36,0-1.85-0.89-1.85-2.27v-8.53h1.96v8.62
				c0,0.44,0.2,0.58,0.39,0.58c0.08,0,0.15,0,0.28-0.03L159.67,37.8z"/>
			<path d="M160.27,34.07c0-2.49,1.72-3.92,3.58-3.92s3.58,1.44,3.58,3.92c0,2.46-1.72,3.9-3.58,3.9
				C161.98,37.97,160.27,36.53,160.27,34.07z M165.43,34.07c0-1.41-0.57-2.33-1.58-2.33s-1.58,0.92-1.58,2.33
				c0,1.4,0.57,2.3,1.58,2.3C164.86,36.37,165.43,35.47,165.43,34.07z"/>
			<path d="M168.43,35.76c0-1.6,1.29-2.44,4.28-2.75c-0.03-0.73-0.35-1.29-1.26-1.29c-0.69,0-1.36,0.31-2.05,0.71l-0.71-1.29
				c0.88-0.55,1.94-0.98,3.11-0.98c1.89,0,2.86,1.13,2.86,3.29v4.35h-1.6l-0.15-0.8h-0.04c-0.65,0.56-1.4,0.98-2.25,0.98
				C169.3,37.97,168.43,37.02,168.43,35.76z M172.71,35.71v-1.5c-1.81,0.24-2.42,0.73-2.42,1.4c0,0.59,0.41,0.84,0.98,0.84
				C171.83,36.44,172.24,36.17,172.71,35.71z"/>
			<path d="M175.97,34.07c0-2.43,1.52-3.92,3.13-3.92c0.84,0,1.36,0.32,1.89,0.81l-0.08-1.17v-2.62h1.96v10.62h-1.58l-0.16-0.77
				h-0.04c-0.55,0.53-1.29,0.96-2.06,0.96C177.17,37.97,175.97,36.51,175.97,34.07z M180.91,35.59v-3.27
				c-0.45-0.41-0.92-0.56-1.38-0.56c-0.84,0-1.54,0.8-1.54,2.29c0,1.54,0.56,2.31,1.54,2.31C180.04,36.36,180.48,36.15,180.91,35.59
				z"/>
			<path d="M184.51,28.07c0-0.64,0.49-1.06,1.17-1.06c0.67,0,1.16,0.43,1.16,1.06c0,0.61-0.49,1.06-1.16,1.06
				S184.51,28.68,184.51,28.07z M184.7,30.33h1.94v7.45h-1.94V30.33z"/>
			<path d="M188.48,30.33h1.6l0.13,0.98h0.05c0.65-0.64,1.41-1.17,2.42-1.17c1.61,0,2.3,1.12,2.3,2.99v4.64h-1.96v-4.4
				c0-1.14-0.32-1.56-1.05-1.56c-0.61,0-1,0.29-1.56,0.84v5.12h-1.94L188.48,30.33L188.48,30.33z"/>
			<path d="M196.25,39.1c0-0.63,0.39-1.16,1.06-1.54v-0.07c-0.39-0.25-0.68-0.64-0.68-1.25c0-0.56,0.39-1.08,0.82-1.4v-0.05
				c-0.5-0.37-0.98-1.08-0.98-1.94c0-1.76,1.42-2.7,3.01-2.7c0.41,0,0.81,0.08,1.12,0.19h2.69v1.44h-1.28
				c0.2,0.25,0.35,0.67,0.35,1.13c0,1.68-1.28,2.53-2.87,2.53c-0.29,0-0.64-0.07-0.96-0.17c-0.21,0.17-0.32,0.35-0.32,0.64
				c0,0.4,0.29,0.61,1.17,0.61h1.26c1.8,0,2.77,0.56,2.77,1.86c0,1.5-1.56,2.65-4.04,2.65C197.61,41.02,196.25,40.42,196.25,39.1z
				 M201.55,38.7c0-0.53-0.44-0.67-1.24-0.67h-0.9c-0.45,0-0.77-0.04-1.04-0.11c-0.33,0.27-0.49,0.56-0.49,0.86
				c0,0.63,0.69,0.98,1.78,0.98C200.77,39.78,201.55,39.29,201.55,38.7z M200.64,32.85c0-0.88-0.49-1.37-1.16-1.37
				s-1.17,0.49-1.17,1.37s0.52,1.37,1.17,1.37C200.14,34.22,200.64,33.72,200.64,32.85z"/>
		</g>
	</g>
	<g>
		<g>
			<path d="M105.02,72.57l2.5,6.65l2.5-6.65h1.95v8.67h-1.5v-2.86l0.15-3.82l-2.56,6.68h-1.08l-2.56-6.68l0.15,3.82v2.86h-1.5v-8.67
				H105.02z"/>
			<path d="M113.16,77.96c0-0.63,0.12-1.2,0.38-1.71s0.6-0.9,1.05-1.17c0.45-0.27,0.97-0.41,1.56-0.41c0.87,0,1.58,0.28,2.12,0.84
				s0.83,1.3,0.88,2.23l0.01,0.34c0,0.64-0.12,1.2-0.37,1.7c-0.24,0.5-0.59,0.89-1.05,1.16c-0.46,0.27-0.98,0.41-1.58,0.41
				c-0.91,0-1.64-0.3-2.18-0.91s-0.82-1.41-0.82-2.42C113.16,78.02,113.16,77.96,113.16,77.96z M114.61,78.09
				c0,0.66,0.14,1.18,0.41,1.56c0.27,0.38,0.65,0.56,1.14,0.56s0.87-0.19,1.14-0.57s0.41-0.94,0.41-1.67c0-0.65-0.14-1.17-0.42-1.55
				c-0.28-0.38-0.66-0.57-1.14-0.57c-0.47,0-0.85,0.19-1.12,0.56C114.75,76.78,114.61,77.34,114.61,78.09z"/>
			<path d="M119.94,77.97c0-0.99,0.23-1.79,0.69-2.39s1.08-0.9,1.85-0.9c0.68,0,1.24,0.24,1.66,0.71v-3.3h1.45v9.15h-1.31
				l-0.07-0.67c-0.43,0.52-1.01,0.79-1.73,0.79c-0.75,0-1.37-0.3-1.83-0.91C120.17,79.84,119.94,79.02,119.94,77.97z M121.39,78.1
				c0,0.66,0.13,1.17,0.38,1.53c0.25,0.37,0.61,0.55,1.08,0.55c0.59,0,1.02-0.26,1.3-0.79v-2.75c-0.27-0.52-0.7-0.77-1.29-0.77
				c-0.47,0-0.83,0.19-1.08,0.56C121.51,76.79,121.39,77.35,121.39,78.1z"/>
			<path d="M129.76,81.36c-0.92,0-1.66-0.29-2.23-0.87s-0.86-1.35-0.86-2.31V78c0-0.64,0.12-1.22,0.37-1.72s0.6-0.9,1.04-1.18
				c0.45-0.28,0.95-0.42,1.5-0.42c0.88,0,1.56,0.28,2.03,0.84c0.48,0.56,0.72,1.35,0.72,2.38v0.58h-4.21
				c0.04,0.53,0.22,0.95,0.53,1.26c0.31,0.31,0.7,0.46,1.18,0.46c0.66,0,1.2-0.27,1.62-0.8l0.78,0.74c-0.26,0.39-0.6,0.68-1.03,0.9
				S130.3,81.36,129.76,81.36z M129.59,75.84c-0.4,0-0.72,0.14-0.96,0.42s-0.4,0.67-0.47,1.16h2.76v-0.11
				c-0.03-0.48-0.16-0.85-0.39-1.1C130.3,75.96,129.99,75.84,129.59,75.84z"/>
			<path d="M134.84,81.24h-1.45v-9.15h1.45V81.24z"/>
		</g>
	</g>
	<g>
		<line class="st3" x1="148.66" y1="77.32" x2="202.79" y2="77.32"/>
		<polygon class="st4" points="206.22,77.32 198.75,74.22 198.75,80.43 		"/>
	</g>
	<g>
		<g>
			<path d="M222.59,77.97c0-1.01,0.23-1.81,0.69-2.4s1.08-0.89,1.87-0.89c0.72,0,1.29,0.25,1.71,0.76l0.08-0.64h1.29v8.92h-1.45
				V80.7c-0.42,0.44-0.97,0.67-1.64,0.67c-0.77,0-1.39-0.3-1.85-0.9S222.59,79.03,222.59,77.97z M224.04,78.09
				c0,0.66,0.13,1.18,0.39,1.55c0.26,0.38,0.62,0.56,1.08,0.56c0.57,0,1-0.24,1.27-0.73v-2.93c-0.28-0.47-0.7-0.7-1.26-0.7
				c-0.46,0-0.82,0.18-1.09,0.55C224.17,76.76,224.04,77.33,224.04,78.09z"/>
			<path d="M233.52,80.61c-0.43,0.5-1.03,0.75-1.81,0.75c-0.7,0-1.23-0.2-1.59-0.61s-0.54-1-0.54-1.78V74.8h1.45v4.16
				c0,0.82,0.34,1.23,1.02,1.23c0.7,0,1.18-0.25,1.42-0.76V74.8h1.45v6.44h-1.36L233.52,80.61z"/>
			<path d="M241.88,78.09c0,1-0.22,1.8-0.67,2.39s-1.06,0.89-1.84,0.89c-0.75,0-1.34-0.27-1.76-0.82l-0.07,0.7h-1.31V72.1h1.45v3.32
				c0.42-0.49,0.98-0.74,1.69-0.74c0.79,0,1.4,0.29,1.85,0.88c0.45,0.58,0.67,1.4,0.67,2.45v0.08H241.88z M240.44,77.96
				c0-0.7-0.12-1.22-0.37-1.57s-0.6-0.52-1.07-0.52c-0.63,0-1.07,0.27-1.32,0.82v2.66c0.26,0.56,0.7,0.84,1.33,0.84
				c0.45,0,0.8-0.17,1.05-0.51s0.37-0.85,0.38-1.53V77.96z"/>
			<path d="M245.76,81.36c-0.92,0-1.66-0.29-2.23-0.87c-0.57-0.58-0.86-1.35-0.86-2.31V78c0-0.64,0.12-1.22,0.37-1.72
				s0.6-0.9,1.04-1.18c0.45-0.28,0.95-0.42,1.5-0.42c0.88,0,1.56,0.28,2.03,0.84c0.48,0.56,0.72,1.35,0.72,2.38v0.58h-4.21
				c0.04,0.53,0.22,0.95,0.53,1.26c0.31,0.31,0.7,0.46,1.18,0.46c0.66,0,1.2-0.27,1.62-0.8l0.78,0.74c-0.26,0.39-0.6,0.68-1.03,0.9
				S246.3,81.36,245.76,81.36z M245.59,75.84c-0.4,0-0.72,0.14-0.96,0.42s-0.4,0.67-0.47,1.16h2.76v-0.11
				c-0.03-0.48-0.16-0.85-0.39-1.1C246.3,75.96,245.99,75.84,245.59,75.84z"/>
			<path d="M252.14,81.36c-0.92,0-1.66-0.29-2.23-0.87c-0.57-0.58-0.86-1.35-0.86-2.31V78c0-0.64,0.12-1.22,0.37-1.72
				s0.6-0.9,1.04-1.18c0.45-0.28,0.95-0.42,1.5-0.42c0.88,0,1.56,0.28,2.03,0.84c0.48,0.56,0.72,1.35,0.72,2.38v0.58h-4.21
				c0.04,0.53,0.22,0.95,0.53,1.26c0.31,0.31,0.7,0.46,1.18,0.46c0.66,0,1.2-0.27,1.62-0.8l0.78,0.74c-0.26,0.39-0.6,0.68-1.03,0.9
				S252.67,81.36,252.14,81.36z M251.96,75.84c-0.4,0-0.72,0.14-0.96,0.42s-0.4,0.67-0.47,1.16h2.76v-0.11
				c-0.03-0.48-0.16-0.85-0.39-1.1C252.68,75.96,252.37,75.84,251.96,75.84z"/>
		</g>
	</g>
	<g>
		<g>
			<path d="M374.87,72.57l2.5,6.65l2.5-6.65h1.95v8.67h-1.5v-2.86l0.15-3.82l-2.56,6.68h-1.08l-2.56-6.68l0.15,3.82v2.86h-1.5v-8.67
				H374.87z"/>
			<path d="M386.41,75.7l1.82-3.13h1.74l-2.62,4.3l2.68,4.37h-1.76l-1.86-3.18l-1.87,3.18h-1.75l2.69-4.37l-2.63-4.3h1.74
				L386.41,75.7z"/>
			<path d="M397.86,77.13c0,0.82-0.13,1.53-0.39,2.14s-0.62,1.08-1.09,1.43l1.49,1.16l-0.98,0.88l-1.85-1.46
				c-0.24,0.05-0.5,0.08-0.78,0.08c-0.7,0-1.32-0.17-1.87-0.52c-0.55-0.34-0.97-0.83-1.27-1.47s-0.45-1.37-0.46-2.2v-0.49
				c0-0.85,0.15-1.59,0.45-2.24c0.3-0.65,0.72-1.14,1.27-1.49c0.55-0.34,1.17-0.52,1.87-0.52c0.71,0,1.35,0.17,1.89,0.51
				s0.97,0.83,1.27,1.47s0.45,1.38,0.45,2.22V77.13z M396.35,76.68c0-0.98-0.18-1.72-0.55-2.22s-0.88-0.76-1.55-0.76
				c-0.65,0-1.15,0.25-1.52,0.77s-0.55,1.23-0.56,2.16v0.51c0,0.94,0.18,1.67,0.55,2.2s0.88,0.79,1.55,0.79
				c0.67,0,1.19-0.25,1.54-0.76s0.54-1.25,0.54-2.23L396.35,76.68L396.35,76.68z"/>
		</g>
	</g>
	<g>
		<line class="st3" x1="268.34" y1="77.32" x2="322.48" y2="77.32"/>
		<polygon class="st4" points="325.91,77.32 318.43,74.22 318.43,80.43 		"/>
	</g>
	<polygon class="st4" points="325.91,191.52 318.43,188.41 318.43,194.62 	"/>
	<polyline class="st3" points="322.48,301.6 295.41,301.6 295.41,191.52 322.48,191.52 	"/>
	<polygon class="st4" points="325.91,301.6 318.43,298.5 318.43,304.71 	"/>
	<line class="st5" x1="89.72" y1="114.25" x2="440.27" y2="114.25"/>
	<g>
		<g>
			<path d="M90.07,146.74h1.96l0.81,3.69c0.15,0.72,0.24,1.44,0.37,2.17h0.05c0.15-0.73,0.28-1.46,0.47-2.17l0.89-3.69h1.74
				l0.93,3.69c0.17,0.72,0.31,1.44,0.47,2.17h0.07c0.13-0.73,0.23-1.45,0.37-2.17l0.81-3.69h1.81l-1.84,7.45h-2.3l-0.79-3.25
				c-0.16-0.71-0.28-1.38-0.43-2.17h-0.07c-0.15,0.79-0.25,1.48-0.41,2.17l-0.76,3.25H92L90.07,146.74z"/>
			<path d="M104.42,143.48h1.3l-3.3,13.13h-1.3L104.42,143.48z"/>
			<path d="M106.41,150.48c0-2.49,1.72-3.93,3.58-3.93s3.58,1.44,3.58,3.93c0,2.46-1.72,3.9-3.58,3.9
				C108.13,154.38,106.41,152.94,106.41,150.48z M111.58,150.48c0-1.41-0.57-2.33-1.58-2.33s-1.58,0.92-1.58,2.33
				c0,1.4,0.57,2.3,1.58,2.3S111.58,151.88,111.58,150.48z"/>
			<path d="M117.37,149.31c0-3.25,2.09-5.15,4.58-5.15c1.25,0,2.25,0.6,2.89,1.26l-1.04,1.25c-0.49-0.48-1.06-0.83-1.81-0.83
				c-1.49,0-2.61,1.28-2.61,3.39c0,2.14,1.01,3.43,2.57,3.43c0.84,0,1.5-0.4,2.04-0.97l1.04,1.22c-0.81,0.94-1.86,1.45-3.14,1.45
				C119.39,154.38,117.37,152.6,117.37,149.31z"/>
			<path d="M126.34,144.35h3.23c2.18,0,3.86,0.76,3.86,3.09c0,2.25-1.69,3.26-3.81,3.26h-1.32v3.5h-1.97v-9.85H126.34z
				 M129.49,149.14c1.36,0,2.01-0.57,2.01-1.7c0-1.14-0.72-1.53-2.08-1.53h-1.12v3.23H129.49z"/>
			<path d="M134.89,149.76v-5.42h1.97v5.59c0,2.05,0.71,2.74,1.86,2.74c1.17,0,1.92-0.69,1.92-2.74v-5.59h1.89v5.42
				c0,3.27-1.4,4.62-3.8,4.62C136.33,154.38,134.89,153.03,134.89,149.76z"/>
			<path d="M146.76,150.48c0-2.49,1.72-3.93,3.58-3.93s3.58,1.44,3.58,3.93c0,2.46-1.72,3.9-3.58,3.9
				C148.48,154.38,146.76,152.94,146.76,150.48z M151.92,150.48c0-1.41-0.57-2.33-1.58-2.33s-1.58,0.92-1.58,2.33
				c0,1.4,0.57,2.3,1.58,2.3C151.35,152.78,151.92,151.88,151.92,150.48z"/>
			<path d="M160.27,146.14c0-1.56,0.72-2.75,2.58-2.75c0.59,0,1.09,0.13,1.42,0.27l-0.36,1.44c-0.27-0.09-0.54-0.16-0.8-0.16
				c-0.59,0-0.91,0.35-0.91,1.17v0.64h1.41v1.54h-1.41v5.91h-1.94v-5.91h-2.69v5.91h-1.96v-5.91h-1v-1.45l1-0.08v-0.52
				c0-1.53,0.79-2.7,2.67-2.7c0.6,0,1.14,0.13,1.5,0.28l-0.36,1.45c-0.27-0.12-0.52-0.19-0.9-0.19c-0.57,0-0.96,0.39-0.96,1.16v0.51
				h2.69v-0.61H160.27z M167.73,154.21c-0.24,0.09-0.56,0.17-1.01,0.17c-1.36,0-1.85-0.89-1.85-2.28v-8.53h1.96v8.62
				c0,0.44,0.2,0.59,0.39,0.59c0.08,0,0.15,0,0.28-0.03L167.73,154.21z"/>
			<path d="M168.33,150.48c0-2.49,1.72-3.93,3.58-3.93s3.58,1.44,3.58,3.93c0,2.46-1.72,3.9-3.58,3.9
				C170.05,154.38,168.33,152.94,168.33,150.48z M173.49,150.48c0-1.41-0.57-2.33-1.58-2.33s-1.58,0.92-1.58,2.33
				c0,1.4,0.57,2.3,1.58,2.3S173.49,151.88,173.49,150.48z"/>
			<path d="M176.49,152.17c0-1.6,1.29-2.44,4.28-2.75c-0.03-0.73-0.35-1.29-1.26-1.29c-0.69,0-1.36,0.31-2.05,0.71l-0.71-1.29
				c0.88-0.55,1.94-0.98,3.11-0.98c1.89,0,2.86,1.13,2.86,3.29v4.35h-1.6l-0.15-0.8h-0.04c-0.65,0.56-1.4,0.98-2.25,0.98
				C177.37,154.38,176.49,153.43,176.49,152.17z M180.77,152.12v-1.5c-1.81,0.24-2.42,0.73-2.42,1.4c0,0.59,0.41,0.84,0.98,0.84
				C179.9,152.85,180.31,152.58,180.77,152.12z"/>
			<path d="M184.03,150.48c0-2.44,1.52-3.93,3.13-3.93c0.84,0,1.36,0.32,1.89,0.81l-0.08-1.17v-2.62h1.96v10.62h-1.58l-0.16-0.77
				h-0.04c-0.54,0.53-1.29,0.96-2.06,0.96C185.23,154.38,184.03,152.92,184.03,150.48z M188.97,152v-3.27
				c-0.45-0.41-0.92-0.56-1.38-0.56c-0.84,0-1.54,0.8-1.54,2.29c0,1.54,0.56,2.31,1.54,2.31C188.11,152.77,188.54,152.56,188.97,152
				z"/>
			<path d="M192.58,144.48c0-0.64,0.49-1.06,1.17-1.06c0.67,0,1.16,0.43,1.16,1.06c0,0.61-0.49,1.06-1.16,1.06
				C193.07,145.54,192.58,145.09,192.58,144.48z M192.76,146.74h1.94v7.45h-1.94V146.74z"/>
			<path d="M196.54,146.74h1.6l0.13,0.98h0.05c0.65-0.64,1.41-1.17,2.42-1.17c1.61,0,2.3,1.12,2.3,2.99v4.64h-1.96v-4.4
				c0-1.14-0.32-1.56-1.05-1.56c-0.61,0-1,0.29-1.56,0.84v5.12h-1.94L196.54,146.74L196.54,146.74z"/>
			<path d="M204.31,155.51c0-0.63,0.39-1.16,1.06-1.54v-0.07c-0.39-0.25-0.68-0.64-0.68-1.25c0-0.56,0.39-1.08,0.83-1.4v-0.05
				c-0.51-0.37-0.98-1.08-0.98-1.94c0-1.76,1.42-2.7,3.01-2.7c0.41,0,0.81,0.08,1.12,0.19h2.69v1.44h-1.28
				c0.2,0.25,0.35,0.67,0.35,1.13c0,1.68-1.28,2.53-2.87,2.53c-0.29,0-0.64-0.07-0.96-0.17c-0.21,0.17-0.32,0.35-0.32,0.64
				c0,0.4,0.29,0.61,1.17,0.61h1.26c1.8,0,2.77,0.56,2.77,1.86c0,1.5-1.56,2.65-4.04,2.65
				C205.67,157.43,204.31,156.83,204.31,155.51z M209.61,155.11c0-0.53-0.44-0.67-1.24-0.67h-0.91c-0.45,0-0.77-0.04-1.04-0.11
				c-0.33,0.27-0.49,0.56-0.49,0.86c0,0.63,0.69,0.98,1.78,0.98C208.84,156.19,209.61,155.7,209.61,155.11z M208.7,149.26
				c0-0.88-0.49-1.37-1.16-1.37s-1.17,0.49-1.17,1.37c0,0.88,0.52,1.37,1.17,1.37S208.7,150.13,208.7,149.26z"/>
		</g>
	</g>
	<g>
		<g>
			<path d="M370.05,186.76l2.5,6.65l2.5-6.65H377v8.67h-1.5v-2.86l0.15-3.82l-2.56,6.68H372l-2.56-6.68l0.15,3.82v2.86h-1.5v-8.67
				H370.05z"/>
			<path d="M381.59,189.9l1.82-3.13h1.74l-2.62,4.3l2.68,4.37h-1.76l-1.86-3.18l-1.87,3.18h-1.75l2.69-4.37l-2.63-4.3h1.74
				L381.59,189.9z"/>
			<path d="M393.05,191.32c0,0.82-0.13,1.53-0.39,2.14s-0.62,1.08-1.09,1.43l1.49,1.16l-0.98,0.88l-1.85-1.46
				c-0.24,0.05-0.5,0.08-0.78,0.08c-0.7,0-1.32-0.17-1.87-0.52c-0.55-0.34-0.97-0.83-1.27-1.47s-0.45-1.37-0.46-2.2v-0.49
				c0-0.85,0.15-1.59,0.45-2.24c0.3-0.65,0.72-1.14,1.27-1.49c0.55-0.34,1.17-0.52,1.87-0.52c0.71,0,1.35,0.17,1.89,0.51
				s0.97,0.83,1.27,1.47s0.45,1.38,0.45,2.22V191.32z M391.53,190.87c0-0.98-0.18-1.72-0.55-2.22s-0.88-0.76-1.55-0.76
				c-0.65,0-1.15,0.25-1.52,0.77s-0.55,1.23-0.56,2.16v0.51c0,0.94,0.18,1.67,0.55,2.2s0.88,0.79,1.55,0.79
				c0.67,0,1.19-0.25,1.54-0.76c0.36-0.51,0.54-1.25,0.54-2.23L391.53,190.87L391.53,190.87z"/>
			<path d="M400.96,195.43h-1.44v-6.97l-2.13,0.73v-1.21l3.38-1.25h0.18v8.7H400.96z"/>
		</g>
	</g>
	<g>
		<g>
			<path d="M103.53,358h2.18l1.68,4.6c0.21,0.61,0.4,1.26,0.6,1.9h0.07c0.21-0.64,0.39-1.29,0.6-1.9l1.64-4.6h2.18v9.85h-1.8v-4.11
				c0-0.93,0.15-2.3,0.24-3.23h-0.05l-0.8,2.32l-1.52,4.14h-1.13l-1.53-4.14l-0.79-2.32h-0.05c0.09,0.93,0.25,2.3,0.25,3.23v4.11
				h-1.77C103.53,367.85,103.53,358,103.53,358z"/>
			<path d="M114,364.13c0-2.49,1.72-3.93,3.58-3.93s3.58,1.44,3.58,3.93c0,2.46-1.72,3.9-3.58,3.9S114,366.59,114,364.13z
				 M119.16,364.13c0-1.41-0.57-2.33-1.58-2.33s-1.58,0.92-1.58,2.33c0,1.4,0.57,2.3,1.58,2.3
				C118.59,366.43,119.16,365.53,119.16,364.13z"/>
			<path d="M122.1,364.13c0-2.44,1.52-3.93,3.13-3.93c0.84,0,1.36,0.32,1.89,0.81l-0.08-1.17v-2.62H129v10.62h-1.58l-0.16-0.77
				h-0.04c-0.54,0.53-1.29,0.96-2.06,0.96C123.3,368.03,122.1,366.56,122.1,364.13z M127.04,365.65v-3.27
				c-0.45-0.41-0.92-0.56-1.38-0.56c-0.84,0-1.54,0.8-1.54,2.29c0,1.54,0.56,2.32,1.54,2.32
				C126.18,366.42,126.62,366.21,127.04,365.65z"/>
			<path d="M130.37,364.13c0-2.42,1.69-3.93,3.47-3.93c2.05,0,3.11,1.5,3.11,3.57c0,0.36-0.04,0.72-0.09,0.89h-4.59
				c0.16,1.22,0.96,1.86,2.06,1.86c0.61,0,1.14-0.19,1.68-0.52l0.67,1.2c-0.73,0.51-1.68,0.83-2.61,0.83
				C131.99,368.03,130.37,366.58,130.37,364.13z M135.28,363.37c0-1.01-0.45-1.65-1.41-1.65c-0.79,0-1.48,0.56-1.62,1.65H135.28z"/>
			<path d="M138.3,365.75v-8.53h1.94v8.62c0,0.44,0.21,0.59,0.4,0.59c0.08,0,0.13,0,0.27-0.03l0.24,1.45
				c-0.23,0.09-0.56,0.17-1.01,0.17C138.78,368.03,138.3,367.14,138.3,365.75z"/>
		</g>
	</g>
	<g>
		<line class="st3" x1="148.66" y1="246.56" x2="202.79" y2="246.56"/>
		<polygon class="st4" points="206.22,246.56 198.75,243.45 198.75,249.67 		"/>
	</g>
	<g>
		<g>
			<path d="M222.59,247.2c0-1.01,0.23-1.81,0.69-2.4s1.08-0.89,1.87-0.89c0.72,0,1.29,0.25,1.71,0.76l0.08-0.64h1.29v8.92h-1.45
				v-3.03c-0.42,0.44-0.97,0.67-1.64,0.67c-0.77,0-1.39-0.3-1.85-0.9S222.59,248.26,222.59,247.2z M224.04,247.33
				c0,0.66,0.13,1.18,0.39,1.55c0.26,0.38,0.62,0.56,1.08,0.56c0.57,0,1-0.24,1.27-0.73v-2.93c-0.28-0.47-0.7-0.7-1.26-0.7
				c-0.46,0-0.82,0.18-1.09,0.55C224.17,246,224.04,246.57,224.04,247.33z"/>
			<path d="M233.52,249.85c-0.43,0.5-1.03,0.75-1.81,0.75c-0.7,0-1.23-0.2-1.59-0.61s-0.54-1-0.54-1.78v-4.17h1.45v4.16
				c0,0.82,0.34,1.23,1.02,1.23c0.7,0,1.18-0.25,1.42-0.76v-4.63h1.45v6.44h-1.36L233.52,249.85z"/>
			<path d="M241.88,247.32c0,1-0.22,1.8-0.67,2.39s-1.06,0.89-1.84,0.89c-0.75,0-1.34-0.27-1.76-0.82l-0.07,0.7h-1.31v-9.15h1.45
				v3.32c0.42-0.49,0.98-0.74,1.69-0.74c0.79,0,1.4,0.29,1.85,0.88c0.45,0.58,0.67,1.4,0.67,2.45v0.08H241.88z M240.44,247.2
				c0-0.7-0.12-1.22-0.37-1.57s-0.6-0.52-1.07-0.52c-0.63,0-1.07,0.27-1.32,0.82v2.66c0.26,0.56,0.7,0.84,1.33,0.84
				c0.45,0,0.8-0.17,1.05-0.51s0.37-0.85,0.38-1.53V247.2z"/>
			<path d="M245.76,250.6c-0.92,0-1.66-0.29-2.23-0.87c-0.57-0.58-0.86-1.35-0.86-2.31v-0.18c0-0.64,0.12-1.22,0.37-1.72
				c0.25-0.51,0.6-0.9,1.04-1.18c0.45-0.28,0.95-0.42,1.5-0.42c0.88,0,1.56,0.28,2.03,0.84c0.48,0.56,0.72,1.35,0.72,2.38v0.58
				h-4.21c0.04,0.53,0.22,0.95,0.53,1.26s0.7,0.46,1.18,0.46c0.66,0,1.2-0.27,1.62-0.8l0.78,0.75c-0.26,0.38-0.6,0.68-1.03,0.9
				C246.78,250.49,246.3,250.6,245.76,250.6z M245.59,245.08c-0.4,0-0.72,0.14-0.96,0.42s-0.4,0.67-0.47,1.16h2.76v-0.11
				c-0.03-0.49-0.16-0.85-0.39-1.1C246.3,245.2,245.99,245.08,245.59,245.08z"/>
			<path d="M252.14,250.6c-0.92,0-1.66-0.29-2.23-0.87c-0.57-0.58-0.86-1.35-0.86-2.31v-0.18c0-0.64,0.12-1.22,0.37-1.72
				c0.25-0.51,0.6-0.9,1.04-1.18c0.45-0.28,0.95-0.42,1.5-0.42c0.88,0,1.56,0.28,2.03,0.84c0.48,0.56,0.72,1.35,0.72,2.38v0.58
				h-4.21c0.04,0.53,0.22,0.95,0.53,1.26s0.7,0.46,1.18,0.46c0.66,0,1.2-0.27,1.62-0.8l0.78,0.75c-0.26,0.38-0.6,0.68-1.03,0.9
				C253.16,250.49,252.67,250.6,252.14,250.6z M251.96,245.08c-0.4,0-0.72,0.14-0.96,0.42s-0.4,0.67-0.47,1.16h2.76v-0.11
				c-0.03-0.49-0.16-0.85-0.39-1.1C252.68,245.2,252.37,245.08,251.96,245.08z"/>
		</g>
	</g>
	<g>
		<g>
			<path d="M353.82,236.16h-2.79v7.74h-1.14v-7.74h-2.78v-0.93h6.71L353.82,236.16L353.82,236.16z"/>
			<path d="M355.86,238.23c0.49-0.6,1.12-0.9,1.91-0.9c1.36,0,2.05,0.77,2.06,2.3v4.26h-1.1v-4.26c0-0.46-0.11-0.81-0.32-1.03
				c-0.21-0.22-0.53-0.33-0.97-0.33c-0.36,0-0.67,0.1-0.94,0.29c-0.27,0.19-0.48,0.44-0.63,0.75v4.59h-1.1v-9.15h1.1L355.86,238.23
				L355.86,238.23z"/>
			<path d="M361.31,235.74c0-0.18,0.05-0.33,0.16-0.45s0.27-0.18,0.49-0.18c0.21,0,0.38,0.06,0.49,0.18s0.17,0.27,0.17,0.45
				s-0.06,0.33-0.17,0.45s-0.27,0.18-0.49,0.18c-0.21,0-0.38-0.06-0.49-0.18S361.31,235.92,361.31,235.74z M362.51,243.9h-1.1v-6.44
				h1.1V243.9z"/>
			<path d="M367.85,242.19c0-0.3-0.11-0.53-0.34-0.69c-0.22-0.17-0.62-0.31-1.17-0.43s-1-0.26-1.33-0.43s-0.57-0.37-0.73-0.6
				s-0.24-0.5-0.24-0.82c0-0.53,0.22-0.97,0.67-1.34s1.02-0.55,1.71-0.55c0.73,0,1.32,0.19,1.78,0.57s0.68,0.86,0.68,1.45h-1.11
				c0-0.3-0.13-0.56-0.38-0.78c-0.26-0.22-0.58-0.33-0.97-0.33c-0.4,0-0.71,0.09-0.94,0.26s-0.34,0.4-0.34,0.69
				c0,0.27,0.11,0.47,0.32,0.6c0.21,0.13,0.59,0.26,1.14,0.39c0.55,0.12,1,0.27,1.34,0.44s0.59,0.38,0.76,0.62
				c0.16,0.24,0.25,0.53,0.25,0.88c0,0.58-0.23,1.04-0.69,1.38c-0.46,0.35-1.06,0.52-1.79,0.52c-0.52,0-0.97-0.09-1.37-0.27
				c-0.4-0.18-0.71-0.44-0.93-0.76c-0.22-0.33-0.34-0.68-0.34-1.06h1.1c0.02,0.37,0.17,0.66,0.44,0.88
				c0.28,0.22,0.64,0.32,1.09,0.32c0.42,0,0.75-0.08,1-0.25S367.85,242.47,367.85,242.19z"/>
			<path d="M376.82,242.19c0-0.3-0.11-0.53-0.34-0.69c-0.22-0.17-0.62-0.31-1.17-0.43s-1-0.26-1.33-0.43s-0.57-0.37-0.73-0.6
				s-0.24-0.5-0.24-0.82c0-0.53,0.22-0.97,0.67-1.34s1.02-0.55,1.71-0.55c0.73,0,1.32,0.19,1.78,0.57s0.68,0.86,0.68,1.45h-1.11
				c0-0.3-0.13-0.56-0.38-0.78c-0.26-0.22-0.58-0.33-0.97-0.33c-0.4,0-0.71,0.09-0.94,0.26s-0.34,0.4-0.34,0.69
				c0,0.27,0.11,0.47,0.32,0.6c0.21,0.13,0.59,0.26,1.14,0.39c0.55,0.12,1,0.27,1.34,0.44s0.59,0.38,0.76,0.62
				c0.16,0.24,0.25,0.53,0.25,0.88c0,0.58-0.23,1.04-0.69,1.38c-0.46,0.35-1.06,0.52-1.79,0.52c-0.52,0-0.97-0.09-1.37-0.27
				c-0.4-0.18-0.71-0.44-0.93-0.76c-0.22-0.33-0.34-0.68-0.34-1.06h1.1c0.02,0.37,0.17,0.66,0.44,0.88
				c0.28,0.22,0.64,0.32,1.09,0.32c0.42,0,0.75-0.08,1-0.25S376.82,242.47,376.82,242.19z"/>
			<path d="M380.29,238.23c0.49-0.6,1.12-0.9,1.91-0.9c1.36,0,2.05,0.77,2.06,2.3v4.26h-1.1v-4.26c0-0.46-0.11-0.81-0.32-1.03
				c-0.21-0.22-0.53-0.33-0.97-0.33c-0.36,0-0.67,0.1-0.94,0.29c-0.27,0.19-0.48,0.44-0.63,0.75v4.59h-1.1v-9.15h1.1L380.29,238.23
				L380.29,238.23z"/>
			<path d="M385.44,240.61c0-0.63,0.12-1.2,0.37-1.7s0.59-0.89,1.04-1.17c0.44-0.27,0.95-0.41,1.52-0.41c0.88,0,1.59,0.3,2.13,0.91
				s0.81,1.42,0.81,2.42v0.08c0,0.63-0.12,1.19-0.36,1.69s-0.58,0.89-1.03,1.16c-0.45,0.28-0.96,0.42-1.54,0.42
				c-0.87,0-1.58-0.3-2.12-0.91s-0.81-1.41-0.81-2.41v-0.08H385.44z M386.55,240.75c0,0.71,0.17,1.29,0.5,1.72
				c0.33,0.43,0.78,0.65,1.33,0.65c0.56,0,1-0.22,1.33-0.66s0.49-1.05,0.49-1.84c0-0.71-0.17-1.28-0.5-1.72
				c-0.34-0.44-0.78-0.66-1.34-0.66c-0.54,0-0.98,0.22-1.32,0.65C386.72,239.32,386.55,239.94,386.55,240.75z"/>
			<path d="M396.5,243.26c-0.43,0.5-1.06,0.76-1.89,0.76c-0.69,0-1.21-0.2-1.57-0.6s-0.54-0.99-0.55-1.77v-4.19h1.1v4.16
				c0,0.98,0.4,1.46,1.19,1.46c0.84,0,1.4-0.31,1.68-0.94v-4.69h1.1v6.44h-1.05L396.5,243.26z"/>
			<path d="M400.27,243.9h-1.1v-9.15h1.1V243.9z"/>
			<path d="M401.59,240.62c0-0.99,0.23-1.78,0.7-2.38s1.08-0.9,1.84-0.9c0.75,0,1.35,0.26,1.79,0.77v-3.36h1.1v9.15h-1.01
				l-0.05-0.69c-0.44,0.54-1.05,0.81-1.84,0.81c-0.75,0-1.36-0.31-1.83-0.92s-0.71-1.41-0.71-2.39L401.59,240.62L401.59,240.62z
				 M402.7,240.75c0,0.73,0.15,1.3,0.45,1.71s0.72,0.62,1.25,0.62c0.7,0,1.21-0.31,1.53-0.94v-2.96c-0.33-0.61-0.84-0.91-1.52-0.91
				c-0.54,0-0.96,0.21-1.26,0.63S402.7,239.93,402.7,240.75z"/>
			<path d="M416.88,240.75c0,0.98-0.23,1.78-0.68,2.37c-0.45,0.6-1.06,0.9-1.82,0.9c-0.81,0-1.44-0.29-1.89-0.86l-0.05,0.74h-1.01
				v-9.15h1.1v3.41c0.45-0.55,1.06-0.83,1.84-0.83s1.4,0.3,1.84,0.89c0.45,0.59,0.67,1.4,0.67,2.43V240.75z M415.77,240.62
				c0-0.75-0.14-1.33-0.43-1.74c-0.29-0.41-0.71-0.61-1.25-0.61c-0.73,0-1.25,0.34-1.57,1.01v2.79c0.34,0.67,0.86,1.01,1.58,1.01
				c0.53,0,0.94-0.2,1.23-0.61S415.77,241.44,415.77,240.62z"/>
			<path d="M420.77,244.01c-0.87,0-1.58-0.29-2.13-0.86c-0.55-0.57-0.82-1.34-0.82-2.3v-0.2c0-0.64,0.12-1.21,0.37-1.71
				c0.24-0.5,0.59-0.89,1.02-1.18c0.44-0.28,0.92-0.43,1.43-0.43c0.84,0,1.49,0.28,1.95,0.83c0.46,0.55,0.7,1.34,0.7,2.37v0.46
				h-4.37c0.02,0.63,0.2,1.15,0.56,1.54s0.81,0.59,1.35,0.59c0.39,0,0.72-0.08,0.99-0.24s0.51-0.37,0.71-0.63l0.67,0.52
				C422.66,243.6,421.85,244.01,420.77,244.01z M420.63,238.24c-0.44,0-0.82,0.16-1.12,0.49c-0.3,0.32-0.49,0.78-0.56,1.36h3.23V240
				c-0.03-0.56-0.18-0.99-0.45-1.3S421.09,238.24,420.63,238.24z"/>
			<path d="M341.15,251.54c0.49-0.6,1.12-0.9,1.91-0.9c1.36,0,2.05,0.77,2.06,2.3v4.26h-1.1v-4.26c0-0.46-0.11-0.81-0.32-1.03
				c-0.21-0.22-0.53-0.33-0.97-0.33c-0.36,0-0.67,0.1-0.94,0.29c-0.27,0.19-0.48,0.44-0.63,0.75v4.59h-1.1v-9.15h1.1L341.15,251.54
				L341.15,251.54z"/>
			<path d="M350.58,257.2c-0.06-0.13-0.12-0.35-0.15-0.68c-0.51,0.53-1.12,0.8-1.83,0.8c-0.64,0-1.16-0.18-1.56-0.54
				s-0.61-0.82-0.61-1.37c0-0.67,0.25-1.19,0.77-1.56c0.51-0.37,1.23-0.56,2.15-0.56h1.07v-0.51c0-0.38-0.12-0.69-0.34-0.92
				c-0.23-0.23-0.57-0.34-1.02-0.34c-0.39,0-0.72,0.1-0.99,0.3s-0.4,0.44-0.4,0.72h-1.11c0-0.32,0.11-0.63,0.34-0.93
				c0.23-0.3,0.54-0.54,0.93-0.71c0.39-0.17,0.82-0.26,1.29-0.26c0.74,0,1.32,0.19,1.75,0.56s0.64,0.88,0.66,1.53v2.97
				c0,0.59,0.08,1.06,0.23,1.41v0.1h-1.18V257.2z M348.75,256.36c0.34,0,0.67-0.09,0.98-0.27s0.53-0.41,0.67-0.7v-1.32h-0.86
				c-1.35,0-2.03,0.4-2.03,1.19c0,0.34,0.12,0.62,0.35,0.81C348.09,256.27,348.39,256.36,348.75,256.36z"/>
			<path d="M354.11,250.76l0.04,0.81c0.49-0.62,1.14-0.93,1.93-0.93c1.36,0,2.05,0.77,2.06,2.3v4.26h-1.1v-4.26
				c0-0.46-0.11-0.81-0.32-1.03c-0.21-0.22-0.53-0.33-0.97-0.33c-0.36,0-0.67,0.1-0.94,0.29c-0.27,0.19-0.48,0.44-0.63,0.75v4.59
				h-1.1v-6.44h1.03V250.76z"/>
			<path d="M359.36,253.93c0-0.99,0.23-1.78,0.7-2.38s1.08-0.9,1.84-0.9c0.75,0,1.35,0.26,1.79,0.77v-3.36h1.1v9.15h-1.01
				l-0.05-0.69c-0.44,0.54-1.05,0.81-1.84,0.81c-0.75,0-1.36-0.31-1.83-0.92c-0.47-0.61-0.71-1.41-0.71-2.39L359.36,253.93
				L359.36,253.93z M360.46,254.05c0,0.73,0.15,1.3,0.45,1.71c0.3,0.41,0.72,0.62,1.25,0.62c0.7,0,1.21-0.31,1.53-0.94v-2.96
				c-0.33-0.61-0.84-0.91-1.52-0.91c-0.54,0-0.96,0.21-1.26,0.63S360.46,253.23,360.46,254.05z"/>
			<path d="M367.53,257.2h-1.1v-9.15h1.1V257.2z"/>
			<path d="M371.8,257.32c-0.87,0-1.58-0.29-2.13-0.86c-0.55-0.57-0.82-1.34-0.82-2.3v-0.2c0-0.64,0.12-1.21,0.37-1.71
				c0.24-0.5,0.59-0.89,1.02-1.18c0.44-0.28,0.92-0.43,1.43-0.43c0.84,0,1.49,0.28,1.95,0.83c0.46,0.55,0.7,1.34,0.7,2.37v0.46
				h-4.37c0.02,0.63,0.2,1.15,0.56,1.54c0.36,0.39,0.81,0.59,1.35,0.59c0.39,0,0.72-0.08,0.99-0.24s0.51-0.37,0.71-0.63l0.67,0.52
				C373.69,256.91,372.88,257.32,371.8,257.32z M371.66,251.55c-0.44,0-0.82,0.16-1.12,0.49c-0.3,0.32-0.49,0.78-0.56,1.36h3.23
				v-0.08c-0.03-0.56-0.18-0.99-0.45-1.3C372.49,251.7,372.12,251.55,371.66,251.55z"/>
			<path d="M375.15,253.93c0-0.99,0.23-1.78,0.7-2.38s1.08-0.9,1.84-0.9c0.75,0,1.35,0.26,1.79,0.77v-3.36h1.1v9.15h-1.01
				l-0.05-0.69c-0.44,0.54-1.05,0.81-1.84,0.81c-0.75,0-1.36-0.31-1.83-0.92c-0.47-0.61-0.71-1.41-0.71-2.39L375.15,253.93
				L375.15,253.93z M376.25,254.05c0,0.73,0.15,1.3,0.45,1.71c0.3,0.41,0.72,0.62,1.25,0.62c0.7,0,1.21-0.31,1.53-0.94v-2.96
				c-0.33-0.61-0.84-0.91-1.52-0.91c-0.54,0-0.96,0.21-1.26,0.63S376.25,253.23,376.25,254.05z"/>
			<path d="M393.28,254.05c0,0.98-0.23,1.78-0.68,2.37c-0.45,0.6-1.06,0.9-1.82,0.9c-0.81,0-1.44-0.29-1.89-0.86l-0.05,0.74h-1.01
				v-9.15h1.1v3.41c0.45-0.55,1.06-0.83,1.84-0.83s1.4,0.3,1.84,0.89c0.45,0.59,0.67,1.4,0.67,2.43V254.05z M392.18,253.93
				c0-0.75-0.14-1.33-0.43-1.74c-0.29-0.41-0.71-0.61-1.25-0.61c-0.73,0-1.25,0.34-1.57,1.01v2.79c0.34,0.67,0.86,1.01,1.58,1.01
				c0.53,0,0.94-0.2,1.23-0.61C392.03,255.36,392.18,254.75,392.18,253.93z"/>
			<path d="M396.6,255.59l1.5-4.83h1.18l-2.59,7.44c-0.4,1.07-1.04,1.61-1.91,1.61l-0.21-0.02l-0.41-0.08v-0.89l0.3,0.02
				c0.37,0,0.66-0.08,0.87-0.23c0.21-0.15,0.38-0.43,0.51-0.83l0.24-0.66l-2.3-6.37h1.2L396.6,255.59z"/>
			<path d="M406.92,256.57c-0.43,0.5-1.06,0.76-1.89,0.76c-0.69,0-1.21-0.2-1.57-0.6s-0.54-0.99-0.55-1.77v-4.19h1.1v4.16
				c0,0.98,0.4,1.46,1.19,1.46c0.84,0,1.4-0.31,1.68-0.94v-4.69h1.1v6.44h-1.05L406.92,256.57z"/>
			<path d="M413.25,255.49c0-0.3-0.11-0.53-0.34-0.69c-0.22-0.17-0.62-0.31-1.17-0.43s-1-0.26-1.33-0.43s-0.57-0.37-0.73-0.6
				s-0.24-0.5-0.24-0.82c0-0.53,0.22-0.97,0.67-1.34s1.02-0.55,1.71-0.55c0.73,0,1.32,0.19,1.78,0.57s0.68,0.86,0.68,1.45h-1.11
				c0-0.3-0.13-0.56-0.38-0.78c-0.26-0.22-0.58-0.33-0.97-0.33c-0.4,0-0.71,0.09-0.94,0.26s-0.34,0.4-0.34,0.69
				c0,0.27,0.11,0.47,0.32,0.6c0.21,0.13,0.59,0.26,1.14,0.39c0.55,0.12,1,0.27,1.34,0.44s0.59,0.38,0.76,0.62
				c0.16,0.24,0.25,0.53,0.25,0.88c0,0.58-0.23,1.04-0.69,1.38c-0.46,0.35-1.06,0.52-1.79,0.52c-0.52,0-0.97-0.09-1.37-0.27
				s-0.71-0.44-0.93-0.76c-0.22-0.33-0.34-0.68-0.34-1.06h1.1c0.02,0.37,0.17,0.66,0.44,0.88c0.28,0.22,0.64,0.32,1.09,0.32
				c0.42,0,0.75-0.08,1-0.25S413.25,255.78,413.25,255.49z"/>
			<path d="M418.29,257.32c-0.87,0-1.58-0.29-2.13-0.86c-0.55-0.57-0.82-1.34-0.82-2.3v-0.2c0-0.64,0.12-1.21,0.37-1.71
				c0.24-0.5,0.59-0.89,1.02-1.18c0.44-0.28,0.92-0.43,1.43-0.43c0.84,0,1.49,0.28,1.95,0.83c0.46,0.55,0.7,1.34,0.7,2.37v0.46
				h-4.37c0.02,0.63,0.2,1.15,0.56,1.54c0.36,0.39,0.81,0.59,1.35,0.59c0.39,0,0.72-0.08,0.99-0.24s0.51-0.37,0.71-0.63l0.67,0.52
				C420.18,256.91,419.37,257.32,418.29,257.32z M418.16,251.55c-0.44,0-0.82,0.16-1.12,0.49c-0.3,0.32-0.49,0.78-0.56,1.36h3.23
				v-0.08c-0.03-0.56-0.18-0.99-0.45-1.3C418.98,251.7,418.62,251.55,418.16,251.55z"/>
			<path d="M425.03,251.75c-0.17-0.03-0.35-0.04-0.54-0.04c-0.72,0-1.21,0.31-1.47,0.92v4.57h-1.1v-6.44h1.07l0.02,0.74
				c0.36-0.58,0.87-0.86,1.54-0.86c0.21,0,0.38,0.03,0.49,0.08L425.03,251.75L425.03,251.75z"/>
			<path d="M429.62,255.49c0-0.3-0.11-0.53-0.34-0.69c-0.22-0.17-0.62-0.31-1.17-0.43s-1-0.26-1.33-0.43s-0.57-0.37-0.73-0.6
				s-0.24-0.5-0.24-0.82c0-0.53,0.22-0.97,0.67-1.34s1.02-0.55,1.71-0.55c0.73,0,1.32,0.19,1.78,0.57s0.68,0.86,0.68,1.45h-1.11
				c0-0.3-0.13-0.56-0.38-0.78c-0.26-0.22-0.58-0.33-0.97-0.33c-0.4,0-0.71,0.09-0.94,0.26s-0.34,0.4-0.34,0.69
				c0,0.27,0.11,0.47,0.32,0.6c0.21,0.13,0.59,0.26,1.14,0.39c0.55,0.12,1,0.27,1.34,0.44s0.59,0.38,0.76,0.62
				c0.16,0.24,0.25,0.53,0.25,0.88c0,0.58-0.23,1.04-0.69,1.38c-0.46,0.35-1.06,0.52-1.79,0.52c-0.52,0-0.97-0.09-1.37-0.27
				s-0.71-0.44-0.93-0.76c-0.22-0.33-0.34-0.68-0.34-1.06h1.1c0.02,0.37,0.17,0.66,0.44,0.88c0.28,0.22,0.64,0.32,1.09,0.32
				c0.42,0,0.75-0.08,1-0.25S429.62,255.78,429.62,255.49z"/>
		</g>
	</g>
	<g>
		<g>
			<path d="M370.05,296.85l2.5,6.65l2.5-6.65H377v8.67h-1.5v-2.86l0.15-3.82l-2.56,6.68H372l-2.56-6.68l0.15,3.82v2.86h-1.5v-8.67
				H370.05z"/>
			<path d="M381.59,299.98l1.82-3.13h1.74l-2.62,4.3l2.68,4.37h-1.76l-1.86-3.18l-1.87,3.18h-1.75l2.69-4.37l-2.63-4.3h1.74
				L381.59,299.98z"/>
			<path d="M393.05,301.41c0,0.82-0.13,1.53-0.39,2.13s-0.62,1.08-1.09,1.43l1.49,1.16l-0.98,0.88l-1.85-1.46
				c-0.24,0.05-0.5,0.08-0.78,0.08c-0.7,0-1.32-0.17-1.87-0.52c-0.55-0.34-0.97-0.83-1.27-1.47s-0.45-1.37-0.46-2.2v-0.49
				c0-0.85,0.15-1.59,0.45-2.24s0.72-1.14,1.27-1.49s1.17-0.51,1.87-0.51c0.71,0,1.35,0.17,1.89,0.51s0.97,0.83,1.27,1.46
				c0.3,0.64,0.45,1.38,0.45,2.23V301.41z M391.53,300.96c0-0.98-0.18-1.72-0.55-2.22s-0.88-0.76-1.55-0.76
				c-0.65,0-1.15,0.26-1.52,0.77c-0.37,0.51-0.55,1.23-0.56,2.16v0.51c0,0.94,0.18,1.67,0.55,2.2s0.88,0.79,1.55,0.79
				c0.67,0,1.19-0.25,1.54-0.76c0.36-0.51,0.54-1.25,0.54-2.23L391.53,300.96L391.53,300.96z"/>
			<path d="M402.87,305.52h-5.83v-1l2.89-3.15c0.42-0.46,0.71-0.85,0.89-1.16c0.18-0.31,0.26-0.62,0.26-0.94
				c0-0.41-0.12-0.75-0.35-1s-0.54-0.38-0.94-0.38c-0.47,0-0.83,0.14-1.09,0.43c-0.26,0.29-0.39,0.68-0.39,1.17h-1.45
				c0-0.53,0.12-1,0.36-1.43s0.58-0.75,1.03-0.99c0.45-0.23,0.96-0.35,1.55-0.35c0.84,0,1.51,0.21,1.99,0.63s0.73,1.01,0.73,1.75
				c0,0.43-0.12,0.89-0.37,1.36s-0.64,1.01-1.2,1.62l-2.12,2.27h4.03v1.17H402.87z"/>
		</g>
	</g>
	<line class="st3" x1="268.34" y1="246.56" x2="295.41" y2="246.56"/>
	<line class="st6" x1="94.34" y1="267.63" x2="94.34" y2="346.15"/>
	<line class="st6" x1="143.4" y1="267.63" x2="262.8" y2="346.15"/>
	<path class="st7" d="M255.38,406H103.81c-2.76,0-5-2.24-5-5v-18.15c0-2.76,2.24-5,5-5h151.57c2.76,0,5,2.24,5,5V401
		C260.38,403.76,258.14,406,255.38,406z"/>
	<g>
		<g>
			<path d="M107.84,392.99v3.4h-1.14v-8.67h3.2c0.95,0,1.69,0.24,2.23,0.73s0.81,1.12,0.81,1.92c0,0.84-0.26,1.49-0.79,1.94
				c-0.53,0.46-1.28,0.68-2.26,0.68H107.84z M107.84,392.05h2.05c0.61,0,1.08-0.14,1.41-0.43c0.33-0.29,0.49-0.71,0.49-1.25
				c0-0.52-0.16-0.93-0.49-1.24c-0.33-0.31-0.77-0.47-1.34-0.48h-2.12C107.84,388.65,107.84,392.05,107.84,392.05z"/>
			<path d="M117.79,396.38c-0.06-0.13-0.12-0.35-0.15-0.68c-0.51,0.53-1.12,0.8-1.83,0.8c-0.63,0-1.16-0.18-1.56-0.54
				s-0.61-0.82-0.61-1.37c0-0.67,0.25-1.19,0.77-1.56c0.51-0.37,1.23-0.56,2.15-0.56h1.07v-0.51c0-0.38-0.12-0.69-0.35-0.92
				s-0.57-0.34-1.02-0.34c-0.39,0-0.72,0.1-0.99,0.3c-0.27,0.2-0.4,0.44-0.4,0.72h-1.11c0-0.32,0.11-0.63,0.34-0.93
				s0.54-0.54,0.93-0.71c0.39-0.17,0.82-0.26,1.29-0.26c0.74,0,1.32,0.19,1.75,0.56s0.64,0.88,0.66,1.53v2.97
				c0,0.59,0.08,1.06,0.23,1.41v0.1L117.79,396.38L117.79,396.38z M115.96,395.54c0.35,0,0.67-0.09,0.98-0.27s0.53-0.41,0.67-0.7
				v-1.32h-0.86c-1.35,0-2.03,0.4-2.03,1.19c0,0.34,0.12,0.62,0.35,0.81S115.6,395.54,115.96,395.54z"/>
			<path d="M123.14,390.93c-0.17-0.03-0.35-0.04-0.54-0.04c-0.72,0-1.21,0.31-1.47,0.92v4.57h-1.1v-6.44h1.07l0.02,0.74
				c0.36-0.58,0.87-0.86,1.54-0.86c0.21,0,0.38,0.03,0.49,0.08L123.14,390.93L123.14,390.93z"/>
			<path d="M125.24,388.38v1.56h1.2v0.85h-1.2v4c0,0.26,0.05,0.45,0.16,0.58s0.29,0.19,0.55,0.19c0.13,0,0.3-0.02,0.52-0.07v0.89
				c-0.29,0.08-0.57,0.12-0.85,0.12c-0.49,0-0.86-0.15-1.11-0.45c-0.25-0.3-0.38-0.72-0.38-1.27v-4h-1.17v-0.85h1.17v-1.56h1.11
				V388.38z"/>
			<path d="M133.43,396.38h-1.11v-7.34l-2.22,0.82v-1l3.16-1.19h0.17V396.38z"/>
			<path d="M138.91,392.86c0-0.9,0.12-1.76,0.36-2.58c0.24-0.83,0.6-1.58,1.08-2.25s0.97-1.15,1.48-1.43l0.23,0.73
				c-0.58,0.45-1.06,1.12-1.43,2.04s-0.58,1.94-0.61,3.07l-0.01,0.51c0,1.53,0.28,2.86,0.84,3.99c0.34,0.67,0.74,1.2,1.2,1.58
				l-0.23,0.67c-0.53-0.29-1.03-0.79-1.51-1.48C139.38,396.35,138.91,394.74,138.91,392.86z"/>
			<path d="M146.46,394.67c0-0.3-0.11-0.53-0.34-0.69s-0.62-0.31-1.17-0.43c-0.56-0.12-1-0.26-1.33-0.43
				c-0.33-0.17-0.57-0.37-0.73-0.6c-0.16-0.23-0.24-0.5-0.24-0.82c0-0.53,0.22-0.97,0.67-1.34s1.02-0.55,1.71-0.55
				c0.73,0,1.32,0.19,1.78,0.57c0.45,0.38,0.68,0.86,0.68,1.45h-1.11c0-0.3-0.13-0.56-0.38-0.78c-0.26-0.22-0.58-0.33-0.97-0.33
				c-0.4,0-0.71,0.09-0.94,0.26s-0.34,0.4-0.34,0.69c0,0.27,0.1,0.47,0.32,0.6c0.21,0.13,0.59,0.26,1.14,0.39s1,0.27,1.34,0.44
				s0.59,0.38,0.76,0.62s0.25,0.53,0.25,0.88c0,0.58-0.23,1.04-0.69,1.38c-0.46,0.35-1.06,0.52-1.79,0.52
				c-0.52,0-0.97-0.09-1.37-0.27s-0.71-0.44-0.93-0.76c-0.22-0.33-0.34-0.68-0.34-1.06h1.1c0.02,0.37,0.17,0.66,0.44,0.88
				c0.28,0.22,0.64,0.32,1.09,0.32c0.42,0,0.75-0.08,1-0.25C146.34,395.18,146.46,394.95,146.46,394.67z"/>
			<path d="M152.57,395.74c-0.43,0.5-1.06,0.76-1.89,0.76c-0.69,0-1.21-0.2-1.57-0.6s-0.54-0.99-0.54-1.77v-4.19h1.1v4.16
				c0,0.98,0.4,1.46,1.19,1.46c0.84,0,1.4-0.31,1.68-0.94v-4.69h1.1v6.44h-1.05L152.57,395.74z"/>
			<path d="M160.34,393.23c0,0.98-0.22,1.77-0.67,2.37s-1.06,0.9-1.82,0.9c-0.78,0-1.4-0.25-1.85-0.74v3.1h-1.1v-8.92h1.01
				l0.05,0.71c0.45-0.56,1.07-0.83,1.87-0.83c0.77,0,1.39,0.29,1.84,0.88c0.45,0.58,0.68,1.4,0.68,2.44L160.34,393.23L160.34,393.23
				z M159.24,393.11c0-0.73-0.16-1.3-0.46-1.72s-0.73-0.63-1.27-0.63c-0.67,0-1.17,0.3-1.5,0.89v3.08c0.33,0.59,0.83,0.88,1.51,0.88
				c0.53,0,0.95-0.21,1.26-0.63S159.24,393.93,159.24,393.11z"/>
			<path d="M166.77,393.23c0,0.98-0.22,1.77-0.67,2.37s-1.06,0.9-1.82,0.9c-0.78,0-1.4-0.25-1.85-0.74v3.1h-1.1v-8.92h1.01
				l0.05,0.71c0.45-0.56,1.07-0.83,1.87-0.83c0.77,0,1.39,0.29,1.84,0.88c0.45,0.58,0.68,1.4,0.68,2.44L166.77,393.23L166.77,393.23
				z M165.67,393.11c0-0.73-0.15-1.3-0.46-1.72s-0.74-0.63-1.28-0.63c-0.67,0-1.17,0.3-1.5,0.89v3.08c0.33,0.59,0.83,0.88,1.51,0.88
				c0.53,0,0.95-0.21,1.26-0.63C165.51,394.55,165.67,393.93,165.67,393.11z"/>
			<path d="M167.46,393.1c0-0.63,0.12-1.2,0.37-1.7s0.59-0.89,1.04-1.17c0.44-0.27,0.95-0.41,1.52-0.41c0.88,0,1.59,0.3,2.13,0.91
				s0.81,1.42,0.81,2.42v0.08c0,0.63-0.12,1.19-0.36,1.69s-0.58,0.89-1.03,1.16c-0.45,0.28-0.96,0.42-1.54,0.42
				c-0.87,0-1.58-0.3-2.12-0.91s-0.81-1.41-0.81-2.41v-0.08H167.46z M168.57,393.23c0,0.71,0.17,1.29,0.5,1.72s0.78,0.65,1.33,0.65
				c0.56,0,1-0.22,1.33-0.66s0.5-1.05,0.5-1.84c0-0.71-0.17-1.28-0.5-1.72s-0.78-0.66-1.34-0.66c-0.54,0-0.98,0.22-1.32,0.65
				C168.74,391.81,168.57,392.43,168.57,393.23z"/>
			<path d="M177.41,390.93c-0.17-0.03-0.35-0.04-0.54-0.04c-0.72,0-1.21,0.31-1.47,0.92v4.57h-1.1v-6.44h1.07l0.02,0.74
				c0.36-0.58,0.87-0.86,1.54-0.86c0.21,0,0.38,0.03,0.49,0.08v1.03H177.41z"/>
			<path d="M179.51,388.38v1.56h1.2v0.85h-1.2v4c0,0.26,0.05,0.45,0.16,0.58s0.29,0.19,0.55,0.19c0.13,0,0.3-0.02,0.52-0.07v0.89
				c-0.29,0.08-0.57,0.12-0.85,0.12c-0.49,0-0.86-0.15-1.11-0.45c-0.25-0.3-0.38-0.72-0.38-1.27v-4h-1.17v-0.85h1.17v-1.56h1.11
				V388.38z"/>
			<path d="M184.25,396.5c-0.87,0-1.58-0.29-2.13-0.86c-0.55-0.57-0.82-1.34-0.82-2.3v-0.2c0-0.64,0.12-1.21,0.37-1.71
				c0.24-0.5,0.59-0.89,1.02-1.18s0.91-0.43,1.43-0.43c0.84,0,1.49,0.28,1.95,0.83c0.46,0.55,0.7,1.34,0.7,2.37v0.46h-4.37
				c0.02,0.63,0.2,1.15,0.56,1.54c0.35,0.39,0.81,0.59,1.35,0.59c0.39,0,0.72-0.08,0.99-0.24s0.51-0.37,0.71-0.63l0.67,0.52
				C186.15,396.09,185.33,396.5,184.25,396.5z M184.12,390.72c-0.45,0-0.82,0.16-1.12,0.49c-0.3,0.32-0.49,0.78-0.56,1.36h3.23
				v-0.08c-0.03-0.56-0.18-0.99-0.45-1.3C184.94,390.88,184.58,390.72,184.12,390.72z"/>
			<path d="M187.36,393.11c0-0.99,0.23-1.78,0.7-2.38s1.08-0.9,1.84-0.9c0.75,0,1.35,0.26,1.79,0.77v-3.36h1.1v9.15h-1.01
				l-0.05-0.69c-0.44,0.54-1.05,0.81-1.84,0.81c-0.75,0-1.36-0.31-1.83-0.92c-0.47-0.61-0.71-1.41-0.71-2.39v-0.09H187.36z
				 M188.46,393.23c0,0.73,0.15,1.3,0.45,1.71s0.72,0.62,1.25,0.62c0.7,0,1.21-0.31,1.53-0.94v-2.96c-0.33-0.61-0.84-0.91-1.52-0.91
				c-0.54,0-0.96,0.21-1.26,0.63S188.46,392.41,188.46,393.23z"/>
			<path d="M196.41,393.1c0-0.63,0.12-1.2,0.37-1.7s0.59-0.89,1.04-1.17c0.44-0.27,0.95-0.41,1.52-0.41c0.88,0,1.59,0.3,2.13,0.91
				s0.81,1.42,0.81,2.42v0.08c0,0.63-0.12,1.19-0.36,1.69s-0.58,0.89-1.03,1.16c-0.45,0.28-0.96,0.42-1.54,0.42
				c-0.87,0-1.58-0.3-2.12-0.91s-0.81-1.41-0.81-2.41v-0.08H196.41z M197.51,393.23c0,0.71,0.17,1.29,0.5,1.72s0.78,0.65,1.33,0.65
				c0.56,0,1-0.22,1.33-0.66s0.5-1.05,0.5-1.84c0-0.71-0.17-1.28-0.5-1.72s-0.78-0.66-1.34-0.66c-0.54,0-0.98,0.22-1.32,0.65
				C197.68,391.81,197.51,392.43,197.51,393.23z"/>
			<path d="M208.68,393.23c0,0.98-0.22,1.77-0.67,2.37s-1.06,0.9-1.82,0.9c-0.78,0-1.4-0.25-1.85-0.74v3.1h-1.1v-8.92h1.01
				l0.05,0.71c0.45-0.56,1.07-0.83,1.87-0.83c0.77,0,1.39,0.29,1.84,0.88c0.45,0.58,0.68,1.4,0.68,2.44L208.68,393.23L208.68,393.23
				z M207.58,393.11c0-0.73-0.15-1.3-0.46-1.72s-0.74-0.63-1.28-0.63c-0.67,0-1.17,0.3-1.5,0.89v3.08c0.33,0.59,0.83,0.88,1.51,0.88
				c0.53,0,0.95-0.21,1.26-0.63C207.43,394.55,207.58,393.93,207.58,393.11z"/>
			<path d="M212.34,396.5c-0.87,0-1.58-0.29-2.13-0.86c-0.55-0.57-0.82-1.34-0.82-2.3v-0.2c0-0.64,0.12-1.21,0.37-1.71
				c0.24-0.5,0.59-0.89,1.02-1.18s0.91-0.43,1.43-0.43c0.84,0,1.49,0.28,1.95,0.83c0.46,0.55,0.7,1.34,0.7,2.37v0.46h-4.37
				c0.02,0.63,0.2,1.15,0.56,1.54c0.35,0.39,0.81,0.59,1.35,0.59c0.39,0,0.72-0.08,0.99-0.24s0.51-0.37,0.71-0.63l0.67,0.52
				C214.23,396.09,213.42,396.5,212.34,396.5z M212.21,390.72c-0.45,0-0.82,0.16-1.12,0.49c-0.3,0.32-0.49,0.78-0.56,1.36h3.23
				v-0.08c-0.03-0.56-0.18-0.99-0.45-1.3C213.03,390.88,212.67,390.72,212.21,390.72z"/>
			<path d="M218.83,390.93c-0.17-0.03-0.35-0.04-0.54-0.04c-0.72,0-1.21,0.31-1.47,0.92v4.57h-1.1v-6.44h1.07l0.02,0.74
				c0.36-0.58,0.87-0.86,1.54-0.86c0.21,0,0.38,0.03,0.49,0.08v1.03H218.83z"/>
			<path d="M223.41,396.38c-0.06-0.13-0.12-0.35-0.15-0.68c-0.51,0.53-1.12,0.8-1.83,0.8c-0.63,0-1.16-0.18-1.56-0.54
				s-0.61-0.82-0.61-1.37c0-0.67,0.25-1.19,0.77-1.56c0.51-0.37,1.23-0.56,2.15-0.56h1.07v-0.51c0-0.38-0.12-0.69-0.35-0.92
				s-0.57-0.34-1.02-0.34c-0.39,0-0.72,0.1-0.99,0.3c-0.27,0.2-0.4,0.44-0.4,0.72h-1.11c0-0.32,0.11-0.63,0.34-0.93
				s0.54-0.54,0.93-0.71c0.39-0.17,0.82-0.26,1.29-0.26c0.74,0,1.32,0.19,1.75,0.56s0.64,0.88,0.66,1.53v2.97
				c0,0.59,0.08,1.06,0.23,1.41v0.1L223.41,396.38L223.41,396.38z M221.58,395.54c0.35,0,0.67-0.09,0.98-0.27s0.53-0.41,0.67-0.7
				v-1.32h-0.86c-1.35,0-2.03,0.4-2.03,1.19c0,0.34,0.12,0.62,0.35,0.81S221.22,395.54,221.58,395.54z"/>
			<path d="M227.15,388.38v1.56h1.2v0.85h-1.2v4c0,0.26,0.05,0.45,0.16,0.58s0.29,0.19,0.55,0.19c0.13,0,0.3-0.02,0.52-0.07v0.89
				c-0.29,0.08-0.57,0.12-0.85,0.12c-0.49,0-0.86-0.15-1.11-0.45s-0.38-0.72-0.38-1.27v-4h-1.17v-0.85h1.17v-1.56h1.11V388.38z"/>
			<path d="M229.23,388.23c0-0.18,0.05-0.33,0.16-0.45c0.11-0.12,0.27-0.18,0.49-0.18c0.21,0,0.38,0.06,0.49,0.18
				s0.17,0.27,0.17,0.45s-0.06,0.33-0.17,0.45c-0.11,0.12-0.27,0.18-0.49,0.18c-0.21,0-0.38-0.06-0.49-0.18
				C229.28,388.56,229.23,388.41,229.23,388.23z M230.42,396.38h-1.1v-6.44h1.1V396.38z"/>
			<path d="M231.47,393.1c0-0.63,0.12-1.2,0.37-1.7s0.59-0.89,1.04-1.17c0.44-0.27,0.95-0.41,1.52-0.41c0.88,0,1.59,0.3,2.13,0.91
				s0.81,1.42,0.81,2.42v0.08c0,0.63-0.12,1.19-0.36,1.69s-0.58,0.89-1.03,1.16c-0.45,0.28-0.96,0.42-1.54,0.42
				c-0.87,0-1.58-0.3-2.12-0.91s-0.81-1.41-0.81-2.41v-0.08H231.47z M232.58,393.23c0,0.71,0.17,1.29,0.5,1.72s0.77,0.65,1.33,0.65
				s1-0.22,1.33-0.66s0.49-1.05,0.49-1.84c0-0.71-0.17-1.28-0.5-1.72c-0.34-0.44-0.78-0.66-1.34-0.66c-0.54,0-0.98,0.22-1.32,0.65
				C232.75,391.81,232.58,392.43,232.58,393.23z"/>
			<path d="M239.35,389.94l0.04,0.81c0.49-0.62,1.13-0.93,1.93-0.93c1.36,0,2.05,0.77,2.06,2.3v4.26h-1.1v-4.26
				c0-0.46-0.11-0.81-0.32-1.03s-0.53-0.33-0.97-0.33c-0.36,0-0.67,0.1-0.94,0.29s-0.48,0.44-0.63,0.75v4.59h-1.1v-6.44h1.03V389.94
				z"/>
			<path d="M248.38,394.67c0-0.3-0.11-0.53-0.34-0.69s-0.62-0.31-1.17-0.43c-0.56-0.12-1-0.26-1.33-0.43
				c-0.33-0.17-0.57-0.37-0.73-0.6c-0.16-0.23-0.24-0.5-0.24-0.82c0-0.53,0.22-0.97,0.67-1.34s1.02-0.55,1.71-0.55
				c0.73,0,1.32,0.19,1.78,0.57c0.45,0.38,0.68,0.86,0.68,1.45h-1.11c0-0.3-0.13-0.56-0.38-0.78c-0.26-0.22-0.58-0.33-0.97-0.33
				c-0.4,0-0.71,0.09-0.94,0.26s-0.34,0.4-0.34,0.69c0,0.27,0.1,0.47,0.32,0.6c0.21,0.13,0.59,0.26,1.14,0.39s1,0.27,1.34,0.44
				s0.59,0.38,0.76,0.62s0.25,0.53,0.25,0.88c0,0.58-0.23,1.04-0.69,1.38c-0.46,0.35-1.06,0.52-1.79,0.52
				c-0.52,0-0.97-0.09-1.37-0.27s-0.71-0.44-0.93-0.76c-0.22-0.33-0.34-0.68-0.34-1.06h1.1c0.02,0.37,0.17,0.66,0.44,0.88
				c0.28,0.22,0.64,0.32,1.09,0.32c0.42,0,0.75-0.08,1-0.25C248.25,395.18,248.38,394.95,248.38,394.67z"/>
			<path d="M253.04,392.92c0,0.89-0.12,1.73-0.35,2.55c-0.23,0.81-0.59,1.56-1.07,2.25c-0.48,0.69-0.98,1.18-1.5,1.47l-0.23-0.67
				c0.61-0.47,1.1-1.2,1.47-2.18s0.56-2.08,0.57-3.29v-0.19c0-0.83-0.09-1.61-0.26-2.33s-0.42-1.36-0.73-1.93s-0.66-1.01-1.05-1.33
				l0.23-0.67c0.52,0.29,1.02,0.77,1.5,1.45c0.47,0.68,0.83,1.43,1.07,2.25C252.92,391.11,253.04,391.99,253.04,392.92z"/>
		</g>
	</g>
	<path class="st7" d="M255.38,440.74H103.81c-2.76,0-5-2.24-5-5v-18.15c0-2.76,2.24-5,5-5h151.57c2.76,0,5,2.24,5,5v18.15
		C260.38,438.5,258.14,440.74,255.38,440.74z"/>
	<g>
		<g>
			<path d="M125.91,422.46v5.9c0,0.82-0.26,1.49-0.77,2.01c-0.51,0.52-1.2,0.81-2.08,0.88l-0.3,0.01c-0.95,0-1.71-0.26-2.27-0.77
				c-0.56-0.51-0.85-1.22-0.86-2.11v-5.91h1.13v5.87c0,0.63,0.17,1.12,0.52,1.46c0.34,0.35,0.84,0.52,1.48,0.52
				c0.65,0,1.14-0.17,1.49-0.52s0.52-0.83,0.52-1.46v-5.88L125.91,422.46L125.91,422.46z"/>
			<path d="M128.16,424.68l0.04,0.81c0.49-0.62,1.14-0.93,1.93-0.93c1.36,0,2.05,0.77,2.06,2.3v4.26h-1.1v-4.26
				c0-0.46-0.11-0.81-0.32-1.03s-0.53-0.33-0.97-0.33c-0.36,0-0.67,0.1-0.94,0.29s-0.48,0.44-0.63,0.75v4.59h-1.1v-6.44h1.03V424.68
				z"/>
			<path d="M137.19,429.42c0-0.3-0.11-0.53-0.34-0.69s-0.62-0.31-1.17-0.43c-0.56-0.12-1-0.26-1.33-0.43
				c-0.33-0.17-0.57-0.37-0.73-0.6c-0.16-0.23-0.24-0.5-0.24-0.82c0-0.53,0.22-0.97,0.67-1.34s1.02-0.55,1.71-0.55
				c0.73,0,1.32,0.19,1.78,0.57c0.45,0.38,0.68,0.86,0.68,1.45h-1.11c0-0.3-0.13-0.56-0.38-0.78c-0.26-0.22-0.58-0.33-0.97-0.33
				c-0.4,0-0.71,0.09-0.94,0.26s-0.34,0.4-0.34,0.69c0,0.27,0.1,0.47,0.32,0.6c0.21,0.13,0.59,0.26,1.14,0.39s1,0.27,1.34,0.44
				s0.59,0.38,0.76,0.62s0.25,0.53,0.25,0.88c0,0.58-0.23,1.04-0.69,1.38c-0.46,0.35-1.06,0.52-1.79,0.52
				c-0.52,0-0.97-0.09-1.37-0.27s-0.71-0.44-0.93-0.76c-0.22-0.33-0.34-0.68-0.34-1.06h1.1c0.02,0.37,0.17,0.66,0.44,0.88
				c0.28,0.22,0.64,0.32,1.09,0.32c0.42,0,0.75-0.08,1-0.25C137.06,429.93,137.19,429.7,137.19,429.42z"/>
			<path d="M143.29,430.49c-0.43,0.5-1.06,0.76-1.89,0.76c-0.69,0-1.21-0.2-1.57-0.6s-0.54-0.99-0.54-1.77v-4.19h1.1v4.16
				c0,0.98,0.4,1.46,1.19,1.46c0.84,0,1.4-0.31,1.68-0.94v-4.69h1.1v6.44h-1.05L143.29,430.49z"/>
			<path d="M151.07,427.98c0,0.98-0.22,1.77-0.67,2.37s-1.06,0.9-1.82,0.9c-0.78,0-1.4-0.25-1.85-0.74v3.1h-1.1v-8.92h1.01
				l0.05,0.71c0.45-0.56,1.07-0.83,1.87-0.83c0.77,0,1.39,0.29,1.84,0.88c0.45,0.58,0.68,1.4,0.68,2.44L151.07,427.98L151.07,427.98
				z M149.96,427.85c0-0.73-0.16-1.3-0.46-1.72s-0.73-0.63-1.27-0.63c-0.67,0-1.17,0.3-1.5,0.89v3.08c0.33,0.59,0.83,0.88,1.51,0.88
				c0.53,0,0.95-0.21,1.26-0.63S149.96,428.68,149.96,427.85z"/>
			<path d="M157.5,427.98c0,0.98-0.22,1.77-0.67,2.37s-1.06,0.9-1.82,0.9c-0.78,0-1.4-0.25-1.85-0.74v3.1h-1.1v-8.92h1.01l0.05,0.71
				c0.45-0.56,1.07-0.83,1.87-0.83c0.77,0,1.39,0.29,1.84,0.88c0.45,0.58,0.68,1.4,0.68,2.44L157.5,427.98L157.5,427.98z
				 M156.39,427.85c0-0.73-0.15-1.3-0.46-1.72s-0.74-0.63-1.28-0.63c-0.67,0-1.17,0.3-1.5,0.89v3.08c0.33,0.59,0.83,0.88,1.51,0.88
				c0.53,0,0.95-0.21,1.26-0.63C156.24,429.3,156.39,428.68,156.39,427.85z"/>
			<path d="M158.19,427.85c0-0.63,0.12-1.2,0.37-1.7s0.59-0.89,1.04-1.17c0.44-0.27,0.95-0.41,1.52-0.41c0.88,0,1.59,0.3,2.13,0.91
				s0.81,1.42,0.81,2.42v0.08c0,0.63-0.12,1.19-0.36,1.69s-0.58,0.89-1.03,1.16c-0.45,0.28-0.96,0.42-1.54,0.42
				c-0.87,0-1.58-0.3-2.12-0.91s-0.81-1.41-0.81-2.41v-0.08H158.19z M159.3,427.98c0,0.71,0.17,1.29,0.5,1.72s0.77,0.65,1.33,0.65
				s1-0.22,1.33-0.66s0.49-1.05,0.49-1.84c0-0.71-0.17-1.28-0.5-1.72c-0.34-0.44-0.78-0.66-1.34-0.66c-0.54,0-0.98,0.22-1.32,0.65
				C159.46,426.55,159.3,427.17,159.3,427.98z"/>
			<path d="M168.14,425.67c-0.17-0.03-0.35-0.04-0.54-0.04c-0.72,0-1.21,0.31-1.47,0.92v4.57h-1.1v-6.44h1.07l0.02,0.74
				c0.36-0.58,0.87-0.86,1.54-0.86c0.21,0,0.38,0.03,0.49,0.08v1.03H168.14z"/>
			<path d="M170.23,423.12v1.56h1.2v0.85h-1.2v4c0,0.26,0.05,0.45,0.16,0.58s0.29,0.19,0.55,0.19c0.13,0,0.3-0.02,0.52-0.07v0.89
				c-0.29,0.08-0.57,0.12-0.85,0.12c-0.49,0-0.86-0.15-1.11-0.45s-0.38-0.72-0.38-1.27v-4h-1.17v-0.85h1.17v-1.56h1.11V423.12z"/>
			<path d="M174.98,431.25c-0.87,0-1.58-0.29-2.13-0.86c-0.55-0.57-0.82-1.34-0.82-2.3v-0.2c0-0.64,0.12-1.21,0.37-1.71
				c0.24-0.5,0.59-0.89,1.02-1.18s0.91-0.43,1.43-0.43c0.84,0,1.49,0.28,1.95,0.83c0.46,0.55,0.7,1.34,0.7,2.37v0.46h-4.37
				c0.02,0.63,0.2,1.15,0.56,1.54c0.35,0.39,0.81,0.59,1.35,0.59c0.39,0,0.72-0.08,0.99-0.24s0.51-0.37,0.71-0.63l0.67,0.52
				C176.87,430.83,176.06,431.25,174.98,431.25z M174.84,425.47c-0.45,0-0.82,0.16-1.12,0.49c-0.3,0.32-0.49,0.78-0.56,1.36h3.23
				v-0.08c-0.03-0.56-0.18-0.99-0.45-1.3C175.67,425.62,175.3,425.47,174.84,425.47z"/>
			<path d="M178.09,427.85c0-0.99,0.23-1.78,0.7-2.38s1.08-0.9,1.84-0.9c0.75,0,1.35,0.26,1.79,0.77v-3.36h1.1v9.15h-1.01
				l-0.05-0.69c-0.44,0.54-1.05,0.81-1.84,0.81c-0.75,0-1.35-0.31-1.83-0.92s-0.71-1.41-0.71-2.39v-0.09H178.09z M179.19,427.98
				c0,0.73,0.15,1.3,0.45,1.71s0.72,0.62,1.25,0.62c0.7,0,1.21-0.31,1.53-0.94v-2.96c-0.33-0.61-0.84-0.91-1.52-0.91
				c-0.54,0-0.96,0.21-1.26,0.63S179.19,427.16,179.19,427.98z"/>
			<path d="M187.13,427.85c0-0.63,0.12-1.2,0.37-1.7s0.59-0.89,1.04-1.17c0.44-0.27,0.95-0.41,1.52-0.41c0.88,0,1.59,0.3,2.13,0.91
				s0.81,1.42,0.81,2.42v0.08c0,0.63-0.12,1.19-0.36,1.69s-0.58,0.89-1.03,1.16c-0.45,0.28-0.96,0.42-1.54,0.42
				c-0.87,0-1.58-0.3-2.12-0.91s-0.81-1.41-0.81-2.41v-0.08H187.13z M188.24,427.98c0,0.71,0.17,1.29,0.5,1.72s0.78,0.65,1.33,0.65
				c0.56,0,1-0.22,1.33-0.66s0.5-1.05,0.5-1.84c0-0.71-0.17-1.28-0.5-1.72s-0.78-0.66-1.34-0.66c-0.54,0-0.98,0.22-1.32,0.65
				C188.41,426.55,188.24,427.17,188.24,427.98z"/>
			<path d="M199.41,427.98c0,0.98-0.22,1.77-0.67,2.37s-1.06,0.9-1.82,0.9c-0.78,0-1.4-0.25-1.85-0.74v3.1h-1.1v-8.92h1.01
				l0.05,0.71c0.45-0.56,1.07-0.83,1.87-0.83c0.77,0,1.39,0.29,1.84,0.88c0.45,0.58,0.68,1.4,0.68,2.44L199.41,427.98L199.41,427.98
				z M198.31,427.85c0-0.73-0.16-1.3-0.46-1.72s-0.73-0.63-1.27-0.63c-0.67,0-1.17,0.3-1.5,0.89v3.08c0.33,0.59,0.83,0.88,1.51,0.88
				c0.53,0,0.95-0.21,1.26-0.63S198.31,428.68,198.31,427.85z"/>
			<path d="M203.07,431.25c-0.87,0-1.58-0.29-2.13-0.86c-0.55-0.57-0.82-1.34-0.82-2.3v-0.2c0-0.64,0.12-1.21,0.37-1.71
				c0.24-0.5,0.59-0.89,1.02-1.18s0.91-0.43,1.43-0.43c0.84,0,1.49,0.28,1.95,0.83c0.46,0.55,0.7,1.34,0.7,2.37v0.46h-4.37
				c0.02,0.63,0.2,1.15,0.56,1.54c0.35,0.39,0.81,0.59,1.35,0.59c0.39,0,0.72-0.08,0.99-0.24s0.51-0.37,0.71-0.63l0.67,0.52
				C204.96,430.83,204.15,431.25,203.07,431.25z M202.93,425.47c-0.45,0-0.82,0.16-1.12,0.49c-0.3,0.32-0.49,0.78-0.56,1.36h3.23
				v-0.08c-0.03-0.56-0.18-0.99-0.45-1.3C203.76,425.62,203.39,425.47,202.93,425.47z"/>
			<path d="M209.56,425.67c-0.17-0.03-0.35-0.04-0.54-0.04c-0.72,0-1.21,0.31-1.47,0.92v4.57h-1.1v-6.44h1.07l0.02,0.74
				c0.36-0.58,0.87-0.86,1.54-0.86c0.21,0,0.38,0.03,0.49,0.08v1.03H209.56z"/>
			<path d="M214.13,431.13c-0.06-0.13-0.12-0.35-0.15-0.68c-0.51,0.53-1.12,0.8-1.83,0.8c-0.63,0-1.16-0.18-1.56-0.54
				s-0.61-0.82-0.61-1.37c0-0.67,0.25-1.19,0.77-1.56c0.51-0.37,1.23-0.56,2.15-0.56h1.07v-0.51c0-0.38-0.12-0.69-0.35-0.92
				s-0.57-0.34-1.02-0.34c-0.39,0-0.72,0.1-0.99,0.3c-0.27,0.2-0.4,0.44-0.4,0.72h-1.11c0-0.32,0.11-0.63,0.34-0.93
				s0.54-0.54,0.93-0.71c0.39-0.17,0.82-0.26,1.29-0.26c0.74,0,1.32,0.19,1.75,0.56s0.64,0.88,0.66,1.53v2.97
				c0,0.59,0.08,1.06,0.23,1.41v0.1L214.13,431.13L214.13,431.13z M212.31,430.29c0.35,0,0.67-0.09,0.98-0.27s0.53-0.41,0.67-0.7
				V428h-0.86c-1.35,0-2.03,0.4-2.03,1.19c0,0.34,0.12,0.62,0.35,0.81S211.94,430.29,212.31,430.29z"/>
			<path d="M217.87,423.12v1.56h1.2v0.85h-1.2v4c0,0.26,0.05,0.45,0.16,0.58s0.29,0.19,0.55,0.19c0.13,0,0.3-0.02,0.52-0.07v0.89
				c-0.29,0.08-0.57,0.12-0.85,0.12c-0.49,0-0.86-0.15-1.11-0.45s-0.38-0.72-0.38-1.27v-4h-1.17v-0.85h1.17v-1.56h1.11V423.12z"/>
			<path d="M219.95,422.97c0-0.18,0.05-0.33,0.16-0.45s0.27-0.18,0.49-0.18s0.38,0.06,0.49,0.18s0.17,0.27,0.17,0.45
				s-0.06,0.33-0.17,0.45s-0.27,0.18-0.49,0.18s-0.38-0.06-0.49-0.18S219.95,423.15,219.95,422.97z M221.14,431.13h-1.1v-6.44h1.1
				V431.13z"/>
			<path d="M222.2,427.85c0-0.63,0.12-1.2,0.37-1.7s0.59-0.89,1.04-1.17c0.44-0.27,0.95-0.41,1.52-0.41c0.88,0,1.59,0.3,2.13,0.91
				s0.81,1.42,0.81,2.42v0.08c0,0.63-0.12,1.19-0.36,1.69s-0.58,0.89-1.03,1.16c-0.45,0.28-0.96,0.42-1.54,0.42
				c-0.87,0-1.58-0.3-2.12-0.91s-0.81-1.41-0.81-2.41v-0.08H222.2z M223.31,427.98c0,0.71,0.17,1.29,0.5,1.72s0.77,0.65,1.33,0.65
				s1-0.22,1.33-0.66s0.49-1.05,0.49-1.84c0-0.71-0.17-1.28-0.5-1.72c-0.34-0.44-0.78-0.66-1.34-0.66c-0.54,0-0.98,0.22-1.32,0.65
				C223.47,426.55,223.31,427.17,223.31,427.98z"/>
			<path d="M230.08,424.68l0.04,0.81c0.49-0.62,1.14-0.93,1.93-0.93c1.36,0,2.05,0.77,2.06,2.3v4.26H233v-4.26
				c0-0.46-0.11-0.81-0.32-1.03s-0.53-0.33-0.97-0.33c-0.36,0-0.67,0.1-0.94,0.29s-0.48,0.44-0.63,0.75v4.59h-1.1v-6.44h1.04V424.68
				z"/>
			<path d="M239.1,429.42c0-0.3-0.11-0.53-0.34-0.69s-0.62-0.31-1.17-0.43c-0.56-0.12-1-0.26-1.33-0.43
				c-0.33-0.17-0.57-0.37-0.73-0.6c-0.16-0.23-0.24-0.5-0.24-0.82c0-0.53,0.22-0.97,0.67-1.34s1.02-0.55,1.71-0.55
				c0.73,0,1.32,0.19,1.78,0.57c0.45,0.38,0.68,0.86,0.68,1.45h-1.11c0-0.3-0.13-0.56-0.38-0.78c-0.26-0.22-0.58-0.33-0.97-0.33
				c-0.4,0-0.71,0.09-0.94,0.26s-0.34,0.4-0.34,0.69c0,0.27,0.1,0.47,0.32,0.6c0.21,0.13,0.59,0.26,1.14,0.39s1,0.27,1.34,0.44
				s0.59,0.38,0.76,0.62s0.25,0.53,0.25,0.88c0,0.58-0.23,1.04-0.69,1.38c-0.46,0.35-1.06,0.52-1.79,0.52
				c-0.52,0-0.97-0.09-1.37-0.27s-0.71-0.44-0.93-0.76c-0.22-0.33-0.34-0.68-0.34-1.06h1.1c0.02,0.37,0.17,0.66,0.44,0.88
				c0.28,0.22,0.64,0.32,1.09,0.32c0.42,0,0.75-0.08,1-0.25C238.98,429.93,239.1,429.7,239.1,429.42z"/>
		</g>
	</g>
	<path class="st7" d="M255.38,475.49H103.81c-2.76,0-5-2.24-5-5v-18.15c0-2.76,2.24-5,5-5h151.57c2.76,0,5,2.24,5,5v18.15
		C260.38,473.25,258.14,475.49,255.38,475.49z"/>
	<g>
		<g>
			<path d="M107.84,462.48v3.4h-1.14v-8.67h3.2c0.95,0,1.69,0.24,2.23,0.73s0.81,1.12,0.81,1.92c0,0.84-0.26,1.49-0.79,1.94
				c-0.53,0.46-1.28,0.68-2.26,0.68H107.84z M107.84,461.54h2.05c0.61,0,1.08-0.14,1.41-0.43c0.33-0.29,0.49-0.71,0.49-1.25
				c0-0.52-0.16-0.93-0.49-1.24c-0.33-0.31-0.77-0.47-1.34-0.48h-2.12C107.84,458.14,107.84,461.54,107.84,461.54z"/>
			<path d="M117.79,465.87c-0.06-0.13-0.12-0.35-0.15-0.68c-0.51,0.53-1.12,0.8-1.83,0.8c-0.63,0-1.16-0.18-1.56-0.54
				s-0.61-0.82-0.61-1.37c0-0.67,0.25-1.19,0.77-1.56c0.51-0.37,1.23-0.56,2.15-0.56h1.07v-0.51c0-0.38-0.12-0.69-0.35-0.92
				s-0.57-0.34-1.02-0.34c-0.39,0-0.72,0.1-0.99,0.3c-0.27,0.2-0.4,0.44-0.4,0.72h-1.11c0-0.32,0.11-0.63,0.34-0.93
				s0.54-0.54,0.93-0.71c0.39-0.17,0.82-0.26,1.29-0.26c0.74,0,1.32,0.19,1.75,0.56s0.64,0.88,0.66,1.53v2.97
				c0,0.59,0.08,1.06,0.23,1.41v0.1L117.79,465.87L117.79,465.87z M115.96,465.03c0.35,0,0.67-0.09,0.98-0.27s0.53-0.41,0.67-0.7
				v-1.32h-0.86c-1.35,0-2.03,0.4-2.03,1.19c0,0.34,0.12,0.62,0.35,0.81S115.6,465.03,115.96,465.03z"/>
			<path d="M123.14,460.42c-0.17-0.03-0.35-0.04-0.54-0.04c-0.72,0-1.21,0.31-1.47,0.92v4.57h-1.1v-6.44h1.07l0.02,0.74
				c0.36-0.58,0.87-0.86,1.54-0.86c0.21,0,0.38,0.03,0.49,0.08L123.14,460.42L123.14,460.42z"/>
			<path d="M125.24,457.87v1.56h1.2v0.85h-1.2v4c0,0.26,0.05,0.45,0.16,0.58s0.29,0.19,0.55,0.19c0.13,0,0.3-0.02,0.52-0.07v0.89
				c-0.29,0.08-0.57,0.12-0.85,0.12c-0.49,0-0.86-0.15-1.11-0.45c-0.25-0.3-0.38-0.72-0.38-1.27v-4h-1.17v-0.85h1.17v-1.56h1.11
				V457.87z"/>
			<path d="M135.49,465.87h-5.68v-0.79l3-3.34c0.45-0.5,0.75-0.91,0.92-1.23s0.25-0.64,0.25-0.98c0-0.45-0.14-0.82-0.41-1.11
				s-0.64-0.43-1.1-0.43c-0.55,0-0.97,0.16-1.28,0.47c-0.3,0.31-0.46,0.75-0.46,1.3h-1.1c0-0.8,0.26-1.44,0.77-1.94
				c0.51-0.49,1.2-0.74,2.06-0.74c0.81,0,1.44,0.21,1.91,0.63s0.7,0.99,0.7,1.69c0,0.85-0.54,1.87-1.63,3.05l-2.32,2.52h4.35v0.9
				H135.49z"/>
			<path d="M138.91,462.35c0-0.9,0.12-1.76,0.36-2.58c0.24-0.83,0.6-1.58,1.08-2.25s0.97-1.15,1.48-1.43l0.23,0.73
				c-0.58,0.45-1.06,1.12-1.43,2.04s-0.58,1.94-0.61,3.07l-0.01,0.51c0,1.53,0.28,2.86,0.84,3.99c0.34,0.67,0.74,1.2,1.2,1.58
				l-0.23,0.67c-0.53-0.29-1.03-0.79-1.51-1.48C139.38,465.85,138.91,464.23,138.91,462.35z"/>
			<path d="M146.46,464.17c0-0.3-0.11-0.53-0.34-0.69s-0.62-0.31-1.17-0.43c-0.56-0.12-1-0.26-1.33-0.43
				c-0.33-0.17-0.57-0.37-0.73-0.6c-0.16-0.23-0.24-0.5-0.24-0.82c0-0.53,0.22-0.97,0.67-1.34s1.02-0.55,1.71-0.55
				c0.73,0,1.32,0.19,1.78,0.57c0.45,0.38,0.68,0.86,0.68,1.45h-1.11c0-0.3-0.13-0.56-0.38-0.78c-0.26-0.22-0.58-0.33-0.97-0.33
				c-0.4,0-0.71,0.09-0.94,0.26s-0.34,0.4-0.34,0.69c0,0.27,0.1,0.47,0.32,0.6c0.21,0.13,0.59,0.26,1.14,0.39s1,0.27,1.34,0.44
				s0.59,0.38,0.76,0.62s0.25,0.53,0.25,0.88c0,0.58-0.23,1.04-0.69,1.38c-0.46,0.35-1.06,0.52-1.79,0.52
				c-0.52,0-0.97-0.09-1.37-0.27s-0.71-0.44-0.93-0.76c-0.22-0.33-0.34-0.68-0.34-1.06h1.1c0.02,0.37,0.17,0.66,0.44,0.88
				c0.28,0.22,0.64,0.32,1.09,0.32c0.42,0,0.75-0.08,1-0.25C146.34,464.67,146.46,464.45,146.46,464.17z"/>
			<path d="M152.57,465.24c-0.43,0.5-1.06,0.76-1.89,0.76c-0.69,0-1.21-0.2-1.57-0.6s-0.54-0.99-0.54-1.77v-4.19h1.1v4.16
				c0,0.98,0.4,1.46,1.19,1.46c0.84,0,1.4-0.31,1.68-0.94v-4.69h1.1v6.44h-1.05L152.57,465.24z"/>
			<path d="M160.34,462.72c0,0.98-0.22,1.77-0.67,2.37s-1.06,0.9-1.82,0.9c-0.78,0-1.4-0.25-1.85-0.74v3.1h-1.1v-8.92h1.01
				l0.05,0.71c0.45-0.56,1.07-0.83,1.87-0.83c0.77,0,1.39,0.29,1.84,0.88c0.45,0.58,0.68,1.4,0.68,2.44L160.34,462.72L160.34,462.72
				z M159.24,462.6c0-0.73-0.16-1.3-0.46-1.72s-0.73-0.63-1.27-0.63c-0.67,0-1.17,0.3-1.5,0.89v3.08c0.33,0.59,0.83,0.88,1.51,0.88
				c0.53,0,0.95-0.21,1.26-0.63S159.24,463.42,159.24,462.6z"/>
			<path d="M166.77,462.72c0,0.98-0.22,1.77-0.67,2.37s-1.06,0.9-1.82,0.9c-0.78,0-1.4-0.25-1.85-0.74v3.1h-1.1v-8.92h1.01
				l0.05,0.71c0.45-0.56,1.07-0.83,1.87-0.83c0.77,0,1.39,0.29,1.84,0.88c0.45,0.58,0.68,1.4,0.68,2.44L166.77,462.72L166.77,462.72
				z M165.67,462.6c0-0.73-0.15-1.3-0.46-1.72s-0.74-0.63-1.28-0.63c-0.67,0-1.17,0.3-1.5,0.89v3.08c0.33,0.59,0.83,0.88,1.51,0.88
				c0.53,0,0.95-0.21,1.26-0.63C165.51,464.05,165.67,463.42,165.67,462.6z"/>
			<path d="M167.46,462.59c0-0.63,0.12-1.2,0.37-1.7s0.59-0.89,1.04-1.17c0.44-0.27,0.95-0.41,1.52-0.41c0.88,0,1.59,0.3,2.13,0.91
				s0.81,1.42,0.81,2.42v0.08c0,0.63-0.12,1.19-0.36,1.69s-0.58,0.89-1.03,1.16c-0.45,0.28-0.96,0.42-1.54,0.42
				c-0.87,0-1.58-0.3-2.12-0.91s-0.81-1.41-0.81-2.41v-0.08H167.46z M168.57,462.72c0,0.71,0.17,1.29,0.5,1.72s0.78,0.65,1.33,0.65
				c0.56,0,1-0.22,1.33-0.66s0.5-1.05,0.5-1.84c0-0.71-0.17-1.28-0.5-1.72s-0.78-0.66-1.34-0.66c-0.54,0-0.98,0.22-1.32,0.65
				C168.74,461.3,168.57,461.92,168.57,462.72z"/>
			<path d="M177.41,460.42c-0.17-0.03-0.35-0.04-0.54-0.04c-0.72,0-1.21,0.31-1.47,0.92v4.57h-1.1v-6.44h1.07l0.02,0.74
				c0.36-0.58,0.87-0.86,1.54-0.86c0.21,0,0.38,0.03,0.49,0.08v1.03H177.41z"/>
			<path d="M179.51,457.87v1.56h1.2v0.85h-1.2v4c0,0.26,0.05,0.45,0.16,0.58s0.29,0.19,0.55,0.19c0.13,0,0.3-0.02,0.52-0.07v0.89
				c-0.29,0.08-0.57,0.12-0.85,0.12c-0.49,0-0.86-0.15-1.11-0.45c-0.25-0.3-0.38-0.72-0.38-1.27v-4h-1.17v-0.85h1.17v-1.56h1.11
				V457.87z"/>
			<path d="M184.25,465.99c-0.87,0-1.58-0.29-2.13-0.86c-0.55-0.57-0.82-1.34-0.82-2.3v-0.2c0-0.64,0.12-1.21,0.37-1.71
				c0.24-0.5,0.59-0.89,1.02-1.18s0.91-0.43,1.43-0.43c0.84,0,1.49,0.28,1.95,0.83c0.46,0.55,0.7,1.34,0.7,2.37v0.46h-4.37
				c0.02,0.63,0.2,1.15,0.56,1.54c0.35,0.39,0.81,0.59,1.35,0.59c0.39,0,0.72-0.08,0.99-0.24s0.51-0.37,0.71-0.63l0.67,0.52
				C186.15,465.58,185.33,465.99,184.25,465.99z M184.12,460.22c-0.45,0-0.82,0.16-1.12,0.49c-0.3,0.32-0.49,0.78-0.56,1.36h3.23
				v-0.08c-0.03-0.56-0.18-0.99-0.45-1.3C184.94,460.37,184.58,460.22,184.12,460.22z"/>
			<path d="M187.36,462.6c0-0.99,0.23-1.78,0.7-2.38s1.08-0.9,1.84-0.9c0.75,0,1.35,0.26,1.79,0.77v-3.36h1.1v9.15h-1.01l-0.05-0.69
				c-0.44,0.54-1.05,0.81-1.84,0.81c-0.75,0-1.36-0.31-1.83-0.92c-0.47-0.61-0.71-1.41-0.71-2.39v-0.09H187.36z M188.46,462.72
				c0,0.73,0.15,1.3,0.45,1.71s0.72,0.62,1.25,0.62c0.7,0,1.21-0.31,1.53-0.94v-2.96c-0.33-0.61-0.84-0.91-1.52-0.91
				c-0.54,0-0.96,0.21-1.26,0.63S188.46,461.91,188.46,462.72z"/>
			<path d="M196.41,462.59c0-0.63,0.12-1.2,0.37-1.7s0.59-0.89,1.04-1.17c0.44-0.27,0.95-0.41,1.52-0.41c0.88,0,1.59,0.3,2.13,0.91
				s0.81,1.42,0.81,2.42v0.08c0,0.63-0.12,1.19-0.36,1.69s-0.58,0.89-1.03,1.16c-0.45,0.28-0.96,0.42-1.54,0.42
				c-0.87,0-1.58-0.3-2.12-0.91s-0.81-1.41-0.81-2.41v-0.08H196.41z M197.51,462.72c0,0.71,0.17,1.29,0.5,1.72s0.78,0.65,1.33,0.65
				c0.56,0,1-0.22,1.33-0.66s0.5-1.05,0.5-1.84c0-0.71-0.17-1.28-0.5-1.72s-0.78-0.66-1.34-0.66c-0.54,0-0.98,0.22-1.32,0.65
				C197.68,461.3,197.51,461.92,197.51,462.72z"/>
			<path d="M208.68,462.72c0,0.98-0.22,1.77-0.67,2.37s-1.06,0.9-1.82,0.9c-0.78,0-1.4-0.25-1.85-0.74v3.1h-1.1v-8.92h1.01
				l0.05,0.71c0.45-0.56,1.07-0.83,1.87-0.83c0.77,0,1.39,0.29,1.84,0.88c0.45,0.58,0.68,1.4,0.68,2.44L208.68,462.72L208.68,462.72
				z M207.58,462.6c0-0.73-0.15-1.3-0.46-1.72s-0.74-0.63-1.28-0.63c-0.67,0-1.17,0.3-1.5,0.89v3.08c0.33,0.59,0.83,0.88,1.51,0.88
				c0.53,0,0.95-0.21,1.26-0.63C207.43,464.05,207.58,463.42,207.58,462.6z"/>
			<path d="M212.34,465.99c-0.87,0-1.58-0.29-2.13-0.86c-0.55-0.57-0.82-1.34-0.82-2.3v-0.2c0-0.64,0.12-1.21,0.37-1.71
				c0.24-0.5,0.59-0.89,1.02-1.18s0.91-0.43,1.43-0.43c0.84,0,1.49,0.28,1.95,0.83c0.46,0.55,0.7,1.34,0.7,2.37v0.46h-4.37
				c0.02,0.63,0.2,1.15,0.56,1.54c0.35,0.39,0.81,0.59,1.35,0.59c0.39,0,0.72-0.08,0.99-0.24s0.51-0.37,0.71-0.63l0.67,0.52
				C214.23,465.58,213.42,465.99,212.34,465.99z M212.21,460.22c-0.45,0-0.82,0.16-1.12,0.49c-0.3,0.32-0.49,0.78-0.56,1.36h3.23
				v-0.08c-0.03-0.56-0.18-0.99-0.45-1.3C213.03,460.37,212.67,460.22,212.21,460.22z"/>
			<path d="M218.83,460.42c-0.17-0.03-0.35-0.04-0.54-0.04c-0.72,0-1.21,0.31-1.47,0.92v4.57h-1.1v-6.44h1.07l0.02,0.74
				c0.36-0.58,0.87-0.86,1.54-0.86c0.21,0,0.38,0.03,0.49,0.08v1.03H218.83z"/>
			<path d="M223.41,465.87c-0.06-0.13-0.12-0.35-0.15-0.68c-0.51,0.53-1.12,0.8-1.83,0.8c-0.63,0-1.16-0.18-1.56-0.54
				s-0.61-0.82-0.61-1.37c0-0.67,0.25-1.19,0.77-1.56c0.51-0.37,1.23-0.56,2.15-0.56h1.07v-0.51c0-0.38-0.12-0.69-0.35-0.92
				s-0.57-0.34-1.02-0.34c-0.39,0-0.72,0.1-0.99,0.3c-0.27,0.2-0.4,0.44-0.4,0.72h-1.11c0-0.32,0.11-0.63,0.34-0.93
				s0.54-0.54,0.93-0.71c0.39-0.17,0.82-0.26,1.29-0.26c0.74,0,1.32,0.19,1.75,0.56s0.64,0.88,0.66,1.53v2.97
				c0,0.59,0.08,1.06,0.23,1.41v0.1L223.41,465.87L223.41,465.87z M221.58,465.03c0.35,0,0.67-0.09,0.98-0.27s0.53-0.41,0.67-0.7
				v-1.32h-0.86c-1.35,0-2.03,0.4-2.03,1.19c0,0.34,0.12,0.62,0.35,0.81S221.22,465.03,221.58,465.03z"/>
			<path d="M227.15,457.87v1.56h1.2v0.85h-1.2v4c0,0.26,0.05,0.45,0.16,0.58s0.29,0.19,0.55,0.19c0.13,0,0.3-0.02,0.52-0.07v0.89
				c-0.29,0.08-0.57,0.12-0.85,0.12c-0.49,0-0.86-0.15-1.11-0.45s-0.38-0.72-0.38-1.27v-4h-1.17v-0.85h1.17v-1.56h1.11V457.87z"/>
			<path d="M229.23,457.72c0-0.18,0.05-0.33,0.16-0.45c0.11-0.12,0.27-0.18,0.49-0.18c0.21,0,0.38,0.06,0.49,0.18
				s0.17,0.27,0.17,0.45s-0.06,0.33-0.17,0.45c-0.11,0.12-0.27,0.18-0.49,0.18c-0.21,0-0.38-0.06-0.49-0.18
				C229.28,458.05,229.23,457.9,229.23,457.72z M230.42,465.87h-1.1v-6.44h1.1V465.87z"/>
			<path d="M231.47,462.59c0-0.63,0.12-1.2,0.37-1.7s0.59-0.89,1.04-1.17c0.44-0.27,0.95-0.41,1.52-0.41c0.88,0,1.59,0.3,2.13,0.91
				s0.81,1.42,0.81,2.42v0.08c0,0.63-0.12,1.19-0.36,1.69s-0.58,0.89-1.03,1.16c-0.45,0.28-0.96,0.42-1.54,0.42
				c-0.87,0-1.58-0.3-2.12-0.91s-0.81-1.41-0.81-2.41v-0.08H231.47z M232.58,462.72c0,0.71,0.17,1.29,0.5,1.72s0.77,0.65,1.33,0.65
				s1-0.22,1.33-0.66s0.49-1.05,0.49-1.84c0-0.71-0.17-1.28-0.5-1.72c-0.34-0.44-0.78-0.66-1.34-0.66c-0.54,0-0.98,0.22-1.32,0.65
				C232.75,461.3,232.58,461.92,232.58,462.72z"/>
			<path d="M239.35,459.43l0.04,0.81c0.49-0.62,1.13-0.93,1.93-0.93c1.36,0,2.05,0.77,2.06,2.3v4.26h-1.1v-4.26
				c0-0.46-0.11-0.81-0.32-1.03s-0.53-0.33-0.97-0.33c-0.36,0-0.67,0.1-0.94,0.29s-0.48,0.44-0.63,0.75v4.59h-1.1v-6.44h1.03V459.43
				z"/>
			<path d="M248.38,464.17c0-0.3-0.11-0.53-0.34-0.69s-0.62-0.31-1.17-0.43c-0.56-0.12-1-0.26-1.33-0.43
				c-0.33-0.17-0.57-0.37-0.73-0.6c-0.16-0.23-0.24-0.5-0.24-0.82c0-0.53,0.22-0.97,0.67-1.34s1.02-0.55,1.71-0.55
				c0.73,0,1.32,0.19,1.78,0.57c0.45,0.38,0.68,0.86,0.68,1.45h-1.11c0-0.3-0.13-0.56-0.38-0.78c-0.26-0.22-0.58-0.33-0.97-0.33
				c-0.4,0-0.71,0.09-0.94,0.26s-0.34,0.4-0.34,0.69c0,0.27,0.1,0.47,0.32,0.6c0.21,0.13,0.59,0.26,1.14,0.39s1,0.27,1.34,0.44
				s0.59,0.38,0.76,0.62s0.25,0.53,0.25,0.88c0,0.58-0.23,1.04-0.69,1.38c-0.46,0.35-1.06,0.52-1.79,0.52
				c-0.52,0-0.97-0.09-1.37-0.27s-0.71-0.44-0.93-0.76c-0.22-0.33-0.34-0.68-0.34-1.06h1.1c0.02,0.37,0.17,0.66,0.44,0.88
				c0.28,0.22,0.64,0.32,1.09,0.32c0.42,0,0.75-0.08,1-0.25C248.25,464.67,248.38,464.45,248.38,464.17z"/>
			<path d="M253.04,462.41c0,0.89-0.12,1.73-0.35,2.55c-0.23,0.81-0.59,1.56-1.07,2.25c-0.48,0.69-0.98,1.18-1.5,1.47l-0.23-0.67
				c0.61-0.47,1.1-1.2,1.47-2.18s0.56-2.08,0.57-3.29v-0.19c0-0.83-0.09-1.61-0.26-2.33s-0.42-1.36-0.73-1.93s-0.66-1.01-1.05-1.33
				l0.23-0.67c0.52,0.29,1.02,0.77,1.5,1.45c0.47,0.68,0.83,1.43,1.07,2.25C252.92,460.6,253.04,461.48,253.04,462.41z"/>
		</g>
	</g>
	<path class="st1" d="M143.95,267.63H94.72c-2.76,0-5-2.24-5-5v-32.14c0-2.76,2.24-5,5-5h49.23c2.76,0,5,2.24,5,5v32.14
		C148.95,265.39,146.71,267.63,143.95,267.63z"/>
	<g>
		<g>
			<path d="M105.02,241.81l2.5,6.65l2.5-6.65h1.95v8.67h-1.5v-2.86l0.15-3.82l-2.56,6.68h-1.08l-2.56-6.68l0.15,3.82v2.86h-1.5
				v-8.67H105.02z"/>
			<path d="M113.16,247.2c0-0.63,0.12-1.2,0.38-1.71c0.25-0.51,0.6-0.9,1.05-1.17c0.45-0.27,0.97-0.41,1.56-0.41
				c0.87,0,1.58,0.28,2.12,0.84s0.83,1.3,0.88,2.23l0.01,0.34c0,0.64-0.12,1.2-0.37,1.7c-0.24,0.5-0.59,0.89-1.05,1.16
				c-0.46,0.27-0.98,0.41-1.58,0.41c-0.91,0-1.64-0.3-2.18-0.91s-0.82-1.41-0.82-2.42C113.16,247.26,113.16,247.2,113.16,247.2z
				 M114.61,247.32c0,0.66,0.14,1.18,0.41,1.56c0.27,0.38,0.65,0.56,1.14,0.56s0.87-0.19,1.14-0.57s0.41-0.94,0.41-1.67
				c0-0.65-0.14-1.17-0.42-1.55s-0.66-0.57-1.14-0.57c-0.47,0-0.85,0.19-1.12,0.56C114.75,246.01,114.61,246.58,114.61,247.32z"/>
			<path d="M119.94,247.21c0-0.99,0.23-1.79,0.69-2.39s1.08-0.9,1.85-0.9c0.68,0,1.24,0.24,1.66,0.71v-3.3h1.45v9.15h-1.31
				l-0.07-0.67c-0.43,0.52-1.01,0.79-1.73,0.79c-0.75,0-1.37-0.3-1.83-0.91C120.17,249.08,119.94,248.25,119.94,247.21z
				 M121.39,247.33c0,0.66,0.13,1.17,0.38,1.53c0.25,0.37,0.61,0.55,1.08,0.55c0.59,0,1.02-0.26,1.3-0.79v-2.75
				c-0.27-0.52-0.7-0.77-1.29-0.77c-0.47,0-0.83,0.19-1.08,0.56C121.51,246.03,121.39,246.59,121.39,247.33z"/>
			<path d="M129.76,250.6c-0.92,0-1.66-0.29-2.23-0.87s-0.86-1.35-0.86-2.31v-0.18c0-0.64,0.12-1.22,0.37-1.72
				c0.25-0.51,0.6-0.9,1.04-1.18c0.45-0.28,0.95-0.42,1.5-0.42c0.88,0,1.56,0.28,2.03,0.84c0.48,0.56,0.72,1.35,0.72,2.38v0.58
				h-4.21c0.04,0.53,0.22,0.95,0.53,1.26s0.7,0.46,1.18,0.46c0.66,0,1.2-0.27,1.62-0.8l0.78,0.75c-0.26,0.38-0.6,0.68-1.03,0.9
				C130.78,250.49,130.3,250.6,129.76,250.6z M129.59,245.08c-0.4,0-0.72,0.14-0.96,0.42s-0.4,0.67-0.47,1.16h2.76v-0.11
				c-0.03-0.49-0.16-0.85-0.39-1.1C130.3,245.2,129.99,245.08,129.59,245.08z"/>
			<path d="M134.84,250.48h-1.45v-9.15h1.45V250.48z"/>
		</g>
	</g>
</g>
</svg>
