<svg width="2620" height="475" xmlns="http://www.w3.org/2000/svg" xmlns:xlink="http://www.w3.org/1999/xlink" xml:space="preserve" overflow="hidden"><defs><clipPath id="clip0"><rect x="507" y="842" width="2620" height="475"/></clipPath></defs><g clip-path="url(#clip0)" transform="translate(-507 -842)"><path d="M1405 931.668C1405 890.982 1437.98 858 1478.67 858L2164.33 858C2205.02 858 2238 890.982 2238 931.668L2238 1226.33C2238 1267.02 2205.02 1300 2164.33 1300L1478.67 1300C1437.98 1300 1405 1267.02 1405 1226.33Z" fill="#3A72C1" fill-rule="evenodd"/><text fill="#FFFFFF" font-family="Noto Sans CJK KR Bold,Noto Sans CJK KR Bold_MSFontService,sans-serif" font-weight="700" font-size="183" transform="matrix(1 0 0 1 1538.54 1141)">qube</text><text fill="#FFFFFF" font-family="Noto Sans CJK KR Bold,Noto Sans CJK KR Bold_MSFontService,sans-serif" font-weight="700" font-size="183" transform="matrix(1 0 0 1 1998.02 1141)">e</text><path d="M516 960.75 1035.5 960.75 1035.5 842 1273 1079.5 1035.5 1317 1035.5 1198.25 516 1198.25Z" fill="#4472C4" fill-rule="evenodd"/><text fill="#FFFFFF" font-family="Noto Sans CJK KR Medium,Noto Sans CJK KR Medium_MSFontService,sans-serif" font-weight="500" font-size="73" transform="matrix(1 0 0 1 727.739 1060)">Model</text><text fill="#FFFFFF" font-family="Noto Sans CJK KR Medium,Noto Sans CJK KR Medium_MSFontService,sans-serif" font-weight="500" font-size="73" transform="matrix(1 0 0 1 551.281 1148)">Calibration Data</text><path d="M2370 960.75 2889.5 960.75 2889.5 842 3127 1079.5 2889.5 1317 2889.5 1198.25 2370 1198.25Z" fill="#4472C4" fill-rule="evenodd"/><text fill="#FFFFFF" font-family="Noto Sans CJK KR Medium,Noto Sans CJK KR Medium_MSFontService,sans-serif" font-weight="500" font-size="83" transform="matrix(1 0 0 1 2599.56 1069)">MXQ</text><text fill="#FFFFFF" font-family="Noto Sans CJK KR Medium,Noto Sans CJK KR Medium_MSFontService,sans-serif" font-weight="500" font-size="64" transform="matrix(1 0 0 1 2412.7 1150)">(Compiled model)</text></g></svg>